<svg width="83" height="79" viewBox="0 0 83 79" fill="none" xmlns="http://www.w3.org/2000/svg">
<path d="M67.829 0H14.497C6.48998 0 0 6.49099 0 14.497V64.308C0 72.315 6.48998 78.805 14.497 78.805H67.829C75.836 78.805 82.326 72.314 82.326 64.308V14.497C82.327 6.49099 75.836 0 67.829 0Z" fill="url(#paint0_linear_8809_11787)"/>
<path d="M63.084 41.6924C63.067 39.6404 62.7939 37.6094 62.0749 35.6634C61.2479 33.4234 59.807 31.7454 57.555 30.8694C55.383 30.0244 53.118 29.8264 50.828 30.2194C48.147 30.6804 46.012 32.0184 44.574 34.3774C44.53 34.4484 44.5 34.5534 44.393 34.5214C44.285 34.4894 44.319 34.3794 44.319 34.2994C44.317 33.2574 44.303 32.2144 44.326 31.1724C44.334 30.8244 44.2489 30.7144 43.8849 30.7174C41.4199 30.7334 38.955 30.7334 36.49 30.7174C36.125 30.7154 36.0169 30.7984 36.0189 31.1804C36.0339 35.6814 36.028 40.1824 36.028 44.6834C36.028 49.1844 36.032 53.6854 36.02 58.1864C36.019 58.5314 36.095 58.6444 36.459 58.6424C39.047 58.6264 41.635 58.6264 44.222 58.6424C44.581 58.6444 44.667 58.5464 44.666 58.1934C44.654 53.7164 44.6539 49.2404 44.6609 44.7634C44.6619 43.7824 44.707 42.8024 44.908 41.8374C45.157 40.6394 45.567 39.5194 46.537 38.7024C47.673 37.7454 49.029 37.5674 50.448 37.6674C52.241 37.7934 53.396 38.7424 53.953 40.4354C54.309 41.5184 54.4169 42.6414 54.4189 43.7724C54.4279 48.5804 54.429 53.3874 54.418 58.1954C54.417 58.5534 54.5169 58.6424 54.8679 58.6404C57.4929 58.6254 60.117 58.6274 62.742 58.6394C63.051 58.6404 63.131 58.5494 63.13 58.2464C63.113 52.7304 63.131 47.2114 63.084 41.6924Z" fill="url(#paint1_linear_8809_11787)"/>
<path d="M30.126 30.7217C27.526 30.7327 24.927 30.7337 22.327 30.7207C21.993 30.7187 21.896 30.8047 21.897 31.1467C21.909 35.6467 21.905 40.1477 21.905 44.6477C21.905 49.1607 21.909 53.6737 21.897 58.1857C21.896 58.5267 21.965 58.6467 22.333 58.6447C24.933 58.6287 27.533 58.6307 30.132 58.6437C30.466 58.6457 30.563 58.5607 30.563 58.2177C30.553 49.1917 30.553 40.1667 30.564 31.1407C30.564 30.7867 30.448 30.7197 30.126 30.7217Z" fill="url(#paint2_linear_8809_11787)"/>
<path d="M26.262 16.8419C23.487 16.8289 21.236 19.0689 21.222 21.8589C21.208 24.6289 23.452 26.8968 26.229 26.9188C28.989 26.9408 31.296 24.6469 31.302 21.8729C31.308 19.1209 29.038 16.8559 26.262 16.8419Z" fill="url(#paint3_linear_8809_11787)"/>
<defs>
<linearGradient id="paint0_linear_8809_11787" x1="16.4358" y1="-1.5745" x2="64.0954" y2="77.4043" gradientUnits="userSpaceOnUse">
<stop offset="2.5e-07" stop-color="#77A4D9"/>
<stop offset="0.2143" stop-color="#608FC6"/>
<stop offset="0.4451" stop-color="#4E7FB9"/>
<stop offset="0.6958" stop-color="#4476B1"/>
<stop offset="1" stop-color="#4173AE"/>
</linearGradient>
<linearGradient id="paint1_linear_8809_11787" x1="41.7542" y1="20.195" x2="53.933" y2="64.7823" gradientUnits="userSpaceOnUse">
<stop offset="1.2e-07" stop-color="white"/>
<stop offset="1" stop-color="#DBDBDB"/>
</linearGradient>
<linearGradient id="paint2_linear_8809_11787" x1="21.0855" y1="25.8419" x2="33.2644" y2="70.4291" gradientUnits="userSpaceOnUse">
<stop offset="1.2e-07" stop-color="white"/>
<stop offset="1" stop-color="#DBDBDB"/>
</linearGradient>
<linearGradient id="paint3_linear_8809_11787" x1="26.9092" y1="24.2504" x2="39.0881" y2="68.8375" gradientUnits="userSpaceOnUse">
<stop offset="1.2e-07" stop-color="white"/>
<stop offset="1" stop-color="#DBDBDB"/>
</linearGradient>
</defs>
</svg>
