<svg width="83" height="79" viewBox="0 0 83 79" fill="none" xmlns="http://www.w3.org/2000/svg">
<path d="M67.829 0H14.497C6.49001 0 0 6.49099 0 14.497V64.308C0 72.315 6.49101 78.805 14.497 78.805H67.829C75.836 78.805 82.326 72.314 82.326 64.308V14.497C82.326 6.49099 75.836 0 67.829 0Z" fill="url(#paint0_linear_8809_11788)"/>
<path d="M65.868 37.4C65.879 36.951 65.826 36.541 65.78 36.176C65.768 36.087 65.757 35.9969 65.747 35.9079C65.51 33.8399 64.989 31.8009 64.202 29.8469C63.773 28.7829 63.388 27.9789 62.954 27.2379C62.87 27.0949 62.791 26.948 62.711 26.801C62.583 26.565 62.45 26.3209 62.295 26.0719C60.091 22.5379 57.146 19.7129 53.539 17.6739C50.029 15.6899 46.148 14.643 42.006 14.564C41.051 14.546 40.048 14.599 38.85 14.732C37.341 14.9 35.85 15.2139 34.419 15.6669C30.078 17.0389 26.353 19.4729 23.346 22.9019C21.066 25.5009 19.4 28.5019 18.391 31.8189C17.743 33.9529 17.398 36.1099 17.365 38.2299C17.364 38.2669 17.36 38.305 17.356 38.342C17.341 38.507 17.319 38.752 17.354 39.038C17.352 39.087 17.351 39.1399 17.353 39.1969L17.357 39.3069C17.387 40.0859 17.417 40.8899 17.518 41.7109C17.697 43.1679 17.964 44.4809 18.332 45.7239C18.993 47.9499 19.974 50.0849 21.249 52.0749C20.694 54.0829 20.138 56.1169 19.6 58.0879L19.215 59.4969C18.995 60.1419 19.164 60.641 19.345 60.948L19.667 61.4929L20.281 61.647C20.753 61.765 21.132 61.6599 21.294 61.6149L23.019 61.1629C25.003 60.6429 26.986 60.123 28.969 59.599C29.008 59.621 29.045 59.6419 29.08 59.6619C29.122 59.6849 29.164 59.709 29.204 59.733C33.075 62.003 37.236 63.147 41.604 63.147C42.376 63.147 43.154 63.1109 43.938 63.0399C45.597 62.8879 47.215 62.5679 48.748 62.0869C51.244 61.3039 53.38 60.2649 55.279 58.9109C56.717 57.8859 57.918 56.877 58.949 55.828C59.615 55.15 60.251 54.4219 60.839 53.6649C61.399 52.9439 61.95 52.1449 62.571 51.1519C63.299 49.9899 63.813 48.7579 64.18 47.8149C64.221 47.7089 64.263 47.6029 64.305 47.4969C64.531 46.9269 64.765 46.3369 64.916 45.6589C64.979 45.3779 65.057 45.0889 65.14 44.7839C65.201 44.5609 65.262 44.3379 65.318 44.1139C65.421 43.7029 65.511 43.2819 65.586 42.8629C65.688 42.2939 65.765 41.6889 65.82 41.0119C65.91 39.9399 65.984 38.681 65.868 37.4ZM62.8 40.76C62.752 41.339 62.688 41.8509 62.603 42.3229C62.54 42.6749 62.464 43.0299 62.378 43.3749C62.327 43.5779 62.272 43.7799 62.217 43.9809C62.128 44.3079 62.036 44.645 61.958 44.997C61.86 45.439 61.679 45.8929 61.489 46.3739C61.444 46.4859 61.4 46.5989 61.356 46.7119C61.038 47.5309 60.596 48.5919 60.003 49.5379C59.436 50.4429 58.941 51.1619 58.445 51.8009C57.929 52.4649 57.371 53.1039 56.787 53.6979C55.881 54.6199 54.812 55.5159 53.52 56.4379C51.885 57.6039 50.028 58.504 47.842 59.19C46.514 59.606 45.108 59.8839 43.664 60.0159C39.085 60.4339 34.737 59.4569 30.739 57.1129C30.684 57.0809 30.629 57.0489 30.573 57.0179C30.478 56.9639 30.388 56.9139 30.336 56.8759C29.977 56.6189 29.58 56.4899 29.151 56.4899C28.949 56.4899 28.741 56.5179 28.525 56.5749C26.598 57.0849 24.669 57.5909 22.741 58.0959C23.243 56.2569 23.758 54.3749 24.271 52.5229C24.447 51.8879 24.348 51.2639 23.987 50.7189C22.775 48.8889 21.851 46.9169 21.24 44.8589C20.919 43.7789 20.686 42.6279 20.528 41.3389C20.443 40.6459 20.416 39.939 20.388 39.191V39.1839C20.39 39.1719 20.391 39.1589 20.392 39.1469L20.425 38.8489L20.372 38.6649C20.374 38.6469 20.375 38.6289 20.377 38.6109C20.385 38.5199 20.395 38.406 20.397 38.275C20.425 36.438 20.726 34.5619 21.292 32.6989C22.174 29.7969 23.632 27.173 25.625 24.9C28.261 21.8939 31.527 19.7599 35.332 18.5569C36.575 18.1639 37.871 17.891 39.184 17.745C40.248 17.627 41.125 17.5779 41.946 17.5949C45.58 17.6649 48.978 18.5789 52.045 20.3129C55.205 22.0989 57.788 24.5759 59.72 27.6749C59.828 27.8479 59.933 28.0419 60.045 28.2479C60.141 28.4239 60.236 28.5989 60.336 28.7689C60.692 29.3769 61.017 30.0589 61.388 30.9789C62.074 32.6799 62.527 34.4539 62.733 36.2519C62.745 36.3539 62.758 36.4559 62.771 36.5589C62.809 36.8579 62.845 37.1399 62.834 37.3689L62.829 37.4809L62.84 37.5929C62.945 38.6669 62.883 39.75 62.8 40.76Z" fill="url(#paint1_linear_8809_11788)"/>
<path d="M53.759 45.2197C53.704 45.1987 53.657 45.1597 53.605 45.1307C52.174 44.3187 50.736 43.5217 49.28 42.7547C48.956 42.5837 48.625 42.4267 48.268 42.3397C47.973 42.2677 47.715 42.3137 47.495 42.5637C47.352 42.7257 47.213 42.8907 47.07 43.0527C46.632 43.5497 46.193 44.0447 45.745 44.5327C45.483 44.8177 45.226 45.1077 44.917 45.3467C44.776 45.4557 44.627 45.5067 44.45 45.4937C44.27 45.4797 44.097 45.4427 43.938 45.3557C43.173 44.9397 42.382 44.5737 41.644 44.1047C40.702 43.5067 39.83 42.8237 39.026 42.0557C38.231 41.2967 37.523 40.4577 36.894 39.5557C36.415 38.8687 35.952 38.1717 35.584 37.4157C35.165 36.8287 35.244 36.3707 35.74 35.9477C36.074 35.6627 36.349 35.3167 36.654 35.0027C36.962 34.6857 37.202 34.3237 37.431 33.9467C37.687 33.5247 37.68 33.1157 37.516 32.6677C37.103 31.5437 36.71 30.4127 36.31 29.2847C36.108 28.7157 35.913 28.1437 35.675 27.5877C35.412 26.9747 34.975 26.6217 34.282 26.6147C33.894 26.6107 33.506 26.5707 33.118 26.5527C32.778 26.5377 32.457 26.6117 32.141 26.7427C31.747 26.9057 31.45 27.1817 31.153 27.4757C30.586 28.0367 30.091 28.6427 29.73 29.3587C29.052 30.7027 28.784 32.1197 28.94 33.6157C29.062 34.7877 29.416 35.8937 29.907 36.9587C30.123 37.4287 30.366 37.8857 30.597 38.3497C30.905 38.8387 31.218 39.3247 31.521 39.8157C32.652 41.6457 33.942 43.3527 35.429 44.9097C37.427 47.0037 39.697 48.7087 42.388 49.8257C43.732 50.3837 45.073 50.9437 46.489 51.3027C47.509 51.5617 48.543 51.6167 49.573 51.4357C50.757 51.2277 51.783 50.6527 52.716 49.9107C53.117 49.5927 53.477 49.2267 53.689 48.7517C54.048 47.9447 54.27 47.1007 54.334 46.2157C54.366 45.7447 54.219 45.3987 53.759 45.2197Z" fill="url(#paint2_linear_8809_11788)"/>
<defs>
<linearGradient id="paint0_linear_8809_11788" x1="16.4163" y1="4.7882" x2="70.2035" y2="80.0222" gradientUnits="userSpaceOnUse">
<stop stop-color="#92DA76"/>
<stop offset="0.1178" stop-color="#88D16C"/>
<stop offset="0.3844" stop-color="#78C15A"/>
<stop offset="0.6689" stop-color="#6EB84F"/>
<stop offset="1" stop-color="#6BB54C"/>
</linearGradient>
<linearGradient id="paint1_linear_8809_11788" x1="27.4838" y1="19.6241" x2="59.1434" y2="76.305" gradientUnits="userSpaceOnUse">
<stop offset="1.2e-07" stop-color="white"/>
<stop offset="1" stop-color="#DBDBDB"/>
</linearGradient>
<linearGradient id="paint2_linear_8809_11788" x1="29.3459" y1="18.5847" x2="61.0055" y2="75.2655" gradientUnits="userSpaceOnUse">
<stop offset="1.2e-07" stop-color="white"/>
<stop offset="1" stop-color="#DBDBDB"/>
</linearGradient>
</defs>
</svg>
