<svg width="83" height="79" viewBox="0 0 83 79" fill="none" xmlns="http://www.w3.org/2000/svg">
<path d="M67.829 0H14.497C6.49001 0 0 6.491 0 14.497V64.308C0 72.315 6.49101 78.805 14.497 78.805H67.829C75.836 78.805 82.326 72.314 82.326 64.308V14.497C82.326 6.49 75.836 0 67.829 0Z" fill="url(#paint0_linear_8809_11790)"/>
<path d="M27.358 42.762C29.699 42.762 32.041 42.761 34.382 42.763C34.82 42.763 34.774 42.709 34.775 43.167C34.776 49.969 34.775 57.771 34.775 64.573H44.341C44.341 57.767 44.341 49.96 44.341 43.154C44.341 42.719 44.292 42.763 44.748 42.762C46.9 42.761 49.052 42.762 51.204 42.762C51.482 42.762 51.478 42.766 51.519 42.496C51.929 39.789 52.347 37.084 52.761 34.378C52.832 33.913 52.826 33.912 52.348 33.912C49.777 33.912 47.207 33.912 44.636 33.912C44.342 33.912 44.342 33.91 44.34 33.62C44.34 33.61 44.34 33.6 44.34 33.59C44.34 31.806 44.34 30.023 44.34 28.24C44.34 27.821 44.371 27.403 44.449 26.991C44.775 25.268 45.749 24.119 47.453 23.628C48.099 23.442 48.764 23.387 49.433 23.387C50.579 23.386 51.725 23.387 52.87 23.386C53.217 23.386 53.189 23.419 53.189 23.062C53.19 20.77 53.189 18.479 53.189 16.187C53.189 16.137 53.185 16.087 53.189 16.038C53.202 15.903 53.148 15.844 53.009 15.827C52.653 15.783 52.301 15.718 51.945 15.672C50.404 15.471 48.857 15.332 47.303 15.274C45.974 15.224 44.654 15.283 43.348 15.547C41.797 15.861 40.354 16.435 39.068 17.372C37.245 18.701 36.081 20.491 35.414 22.625C34.944 24.132 34.774 25.682 34.772 27.253C34.768 29.375 34.771 31.497 34.771 33.62C34.771 33.931 34.791 33.912 34.48 33.913C34.41 33.913 34.341 33.913 34.271 33.913C31.979 33.913 29.688 33.913 27.396 33.913C27.316 33.913 27.237 33.916 27.157 33.913C27.044 33.909 26.992 33.959 26.997 34.073C27 34.133 26.997 34.192 26.997 34.252C26.997 36.972 26.997 39.692 26.997 42.412C27.001 42.78 26.955 42.762 27.358 42.762Z" fill="url(#paint1_linear_8809_11790)"/>
<defs>
<linearGradient id="paint0_linear_8809_11790" x1="69.4671" y1="73.9956" x2="9.72242" y2="0.974285" gradientUnits="userSpaceOnUse">
<stop stop-color="#4776EE"/>
<stop offset="0.2704" stop-color="#4C7AEF"/>
<stop offset="0.583" stop-color="#5A85F3"/>
<stop offset="0.9154" stop-color="#7196F8"/>
<stop offset="1" stop-color="#789CFA"/>
</linearGradient>
<linearGradient id="paint1_linear_8809_11790" x1="36.2303" y1="19.1182" x2="55.3394" y2="71.2338" gradientUnits="userSpaceOnUse">
<stop offset="1.2e-07" stop-color="white"/>
<stop offset="1" stop-color="#DBDBDB"/>
</linearGradient>
</defs>
</svg>
