<svg width="21" height="21" viewBox="0 0 21 21" fill="none" xmlns="http://www.w3.org/2000/svg">
<path fill-rule="evenodd" clip-rule="evenodd" d="M14.06 13.2075H15.0086L21 19.211L19.211 21L13.2075 15.0086V14.06L12.8834 13.7238C11.5146 14.9005 9.73756 15.6089 7.80446 15.6089C3.494 15.6089 0 12.1149 0 7.80446C0 3.494 3.494 0 7.80446 0C12.1149 0 15.6089 3.494 15.6089 7.80446C15.6089 9.73756 14.9005 11.5146 13.7238 12.8834L14.06 13.2075ZM2.40137 7.80448C2.40137 10.7942 4.81475 13.2076 7.80446 13.2076C10.7942 13.2076 13.2075 10.7942 13.2075 7.80448C13.2075 4.81477 10.7942 2.40139 7.80446 2.40139C4.81475 2.40139 2.40137 4.81477 2.40137 7.80448Z" fill="#767676"/>
</svg>
