<svg width="62" height="62" viewBox="0 0 62 62" fill="none" xmlns="http://www.w3.org/2000/svg">
<circle cx="21.7002" cy="53.7329" r="4.13333" fill="#FFDA56"/>
<circle cx="47.5332" cy="53.7329" r="4.13333" fill="#FFDA56"/>
<path d="M53.1538 17.2987C54.6946 17.2799 56.2317 17.2536 57.7726 17.2461C58.6295 17.2424 59.1443 17.6475 59.103 18.3152C59.0541 19.0767 58.5693 19.3693 57.844 19.3768C54.736 19.4068 51.6279 19.4444 48.5161 19.4894C47.787 19.5006 47.2985 19.2118 47.2308 18.4578C47.1707 17.7976 47.6893 17.3737 48.5387 17.3587C50.0795 17.3287 51.6166 17.3174 53.1575 17.3024L53.1538 17.2987Z" fill="black"/>
<path d="M2.88379 3.9333C3.31598 3.16055 3.99622 2.97298 4.8343 3.00299C6.08203 3.04801 7.32975 3.00299 8.58124 3.018C11.4187 3.04051 13.6624 4.64978 14.5906 7.3319C14.9364 8.32597 15.2822 9.32379 15.5753 10.3366C15.6956 10.753 15.8647 10.888 16.3044 10.8955C23.4375 10.9818 30.5668 11.0868 37.6999 11.1881C44.9081 11.2894 52.1126 11.3944 59.3209 11.4957C59.7869 11.5032 60.2153 11.597 60.5799 11.9083C60.9632 12.2384 61.0722 12.6323 60.9557 13.1237C59.8883 17.5539 58.8473 21.9916 57.7612 26.418C56.8893 29.9742 54.4803 32.0186 50.8386 32.3975C44.1452 33.0952 37.4518 33.8042 30.7585 34.5057C28.4096 34.7532 26.0569 35.0046 23.7043 35.2109C23.1067 35.2634 22.7948 35.481 22.5656 36.0474C22.1371 37.094 21.9943 38.1256 22.434 39.1722C23.0391 40.6014 24.1553 41.3216 25.7074 41.3554C26.2185 41.3666 26.7297 41.3554 27.2408 41.3554C35.2232 41.3554 43.2094 41.3554 51.1919 41.3554C51.4737 41.3554 51.7593 41.3741 52.0337 41.4267C52.6576 41.5429 53.0634 42.0268 53.0935 42.6458C53.1236 43.2798 52.729 43.8387 52.1089 43.9887C51.8721 44.045 51.6203 44.0487 51.376 44.0487C42.8824 44.0487 34.3851 44.0525 25.8916 44.0487C21.1525 44.0487 18.1083 39.431 20.0213 35.0946C20.4084 34.2131 20.461 33.4591 20.149 32.5325C17.4319 24.4899 14.771 16.4323 12.0914 8.37849C11.4826 6.55164 10.31 5.70762 8.36702 5.70387C7.17566 5.70387 5.98431 5.68511 4.79296 5.71137C3.95863 5.73013 3.27089 5.53882 2.88755 4.72105V3.92954L2.88379 3.9333ZM37.294 13.8815C30.5969 13.7802 23.9035 13.6789 17.2064 13.5701C16.8193 13.5626 16.6238 13.5514 16.793 14.0615C18.7961 20.0785 20.7804 26.0992 22.761 32.1236C22.87 32.45 23.009 32.5438 23.3623 32.5063C26.4628 32.1762 29.5671 31.8723 32.6714 31.5497C38.7259 30.9232 44.7803 30.2855 50.8348 29.6628C53.0371 29.4378 54.5667 28.1511 55.1004 25.9866C56.0212 22.2392 56.9156 18.4842 57.8514 14.7368C57.9754 14.2341 57.8702 14.1591 57.3854 14.1516C50.6882 14.0728 43.9949 13.9753 37.2978 13.8815H37.294Z" fill="black"/>
<path d="M21.4306 59.4586C18.0895 59.4586 15.3724 56.7578 15.3648 53.4304C15.3573 50.0844 18.1196 47.3272 21.4494 47.3497C24.7604 47.3722 27.5114 50.1294 27.5001 53.4229C27.4926 56.739 24.7529 59.4624 21.4306 59.4624V59.4586ZM21.4381 56.7615C23.2796 56.754 24.7942 55.246 24.7942 53.4117C24.7942 51.5811 23.2796 50.0581 21.4419 50.0468C19.5816 50.0356 18.0557 51.5698 18.0708 53.4342C18.0858 55.2873 19.5853 56.7653 21.4381 56.7578V56.7615Z" fill="black"/>
<path d="M53.1124 53.4118C53.1124 56.7466 50.4065 59.455 47.0655 59.4625C43.6981 59.47 40.9696 56.7429 40.9884 53.3893C41.0072 50.0657 43.7469 47.3423 47.0617 47.3536C50.3839 47.3648 53.1124 50.0995 53.1124 53.4155V53.4118ZM47.0617 56.7616C48.907 56.7541 50.4215 55.2461 50.4253 53.4118C50.4253 51.5962 48.8919 50.0619 47.0655 50.0507C45.2202 50.0394 43.6417 51.6149 43.6755 53.438C43.7094 55.2911 45.2164 56.7691 47.0617 56.7616Z" fill="black"/>
<path d="M11.0615 41.6814C12.6023 41.6627 14.1394 41.6364 15.6803 41.6289C16.5372 41.6252 17.0521 42.0303 17.0107 42.698C16.9619 43.4595 16.4771 43.7521 15.7517 43.7596C12.6437 43.7896 9.53562 43.8271 6.42382 43.8721C5.69473 43.8834 5.20616 43.5946 5.13851 42.8406C5.07838 42.1803 5.59701 41.7565 6.44637 41.7415C7.98724 41.7114 9.52434 41.7002 11.0652 41.6852L11.0615 41.6814Z" fill="black"/>
<path d="M6.92766 46.5584C8.46853 46.5396 10.0056 46.5134 11.5465 46.5059C12.4034 46.5021 12.9182 46.9073 12.8769 47.575C12.828 48.3365 12.3432 48.6291 11.6179 48.6366C8.50986 48.6666 5.40183 48.7041 2.29003 48.7491C1.56094 48.7604 1.07237 48.4715 1.00472 47.7175C0.944591 47.0573 1.46323 46.6334 2.31258 46.6184C3.85345 46.5884 5.39055 46.5772 6.93141 46.5622L6.92766 46.5584Z" fill="black"/>
</svg>
