<svg width="65" height="62" viewBox="0 0 65 62" fill="none" xmlns="http://www.w3.org/2000/svg">
<path d="M32.0331 16.0167C39.294 16.0167 39.3296 10.1611 38.4398 7.23334C26.6942 3.10001 19.2198 8.78334 16.0164 10.3333C13.4538 11.5733 10.6776 14.9833 9.60977 16.5333C8.18607 18.2556 5.23188 23.25 4.80477 29.45C4.37766 35.65 6.40644 40.9889 7.47422 42.8833H9.60977C14.9487 40.3 9.07588 37.7167 10.1437 34.6167C10.9979 32.1367 14.0588 33.2389 15.4825 34.1C16.3724 36.5111 18.6859 41.23 20.8214 40.8167C22.957 40.4033 24.2027 42.0222 24.5587 42.8833C26.6942 48.5667 29.3636 48.05 31.4992 47.5333C33.6348 47.0167 33.6348 44.95 31.4992 41.3333C29.3637 37.7167 31.4992 32.0333 34.1687 31C36.3042 30.1733 36.4822 27.5556 36.3042 26.35L36.8381 23.7667C39.5075 19.1167 35.7703 18.6 35.2364 18.6C34.8093 18.6 33.2788 20.3222 32.567 21.1833L22.957 22.2167C21.3553 22.0445 18.5791 20.9767 20.2875 18.0833C22.4231 14.4667 22.4231 16.5333 25.6264 17.5667C28.1891 18.3933 29.1857 18.2556 29.3636 18.0833L32.0331 16.0167Z" fill="#FFDA56" stroke="black"/>
<mask id="path-2-inside-1_6296_84379" fill="white">
<path d="M57.0472 23.1426C58.8149 21.0415 60.5221 18.9372 61.1214 16.2279C61.5961 14.0813 60.778 12.5884 58.6903 11.7038C57.4445 11.1769 56.1246 10.9817 54.7171 10.8614C54.9596 11.3622 55.3637 11.6907 55.6634 12.0875C55.8384 12.3185 56.0506 12.5299 56.2088 12.7706C56.4748 13.1804 56.3906 13.5739 56.0102 13.8699C55.6263 14.1723 55.1818 14.1723 54.8619 13.8113C53.8754 12.7022 52.9057 11.5802 51.9797 10.4255C51.6531 10.019 51.7912 9.55389 52.2356 9.23841C53.3838 8.4188 54.532 7.60244 55.6936 6.79909C56.1751 6.46408 56.6903 6.53239 56.9967 6.92268C57.2998 7.30972 57.2122 7.8171 56.7543 8.16511C56.33 8.49035 55.8889 8.79283 55.3367 9.19288C56.7206 9.32948 57.9226 9.5539 59.0675 9.99623C61.1316 10.7931 62.6332 12.0908 62.97 14.3285C63.1854 15.753 62.8252 17.1093 62.2696 18.42C61.2628 20.7943 59.6971 22.8173 57.9361 24.707C57.6432 25.0225 57.586 25.3054 57.6668 25.699C59.3806 33.7682 57.7072 41.1285 52.4747 47.6301C48.0604 53.1137 42.1982 56.3726 35.097 57.4329C29.4672 58.2753 24.063 57.4232 18.945 54.9936C15.2748 53.2503 12.1771 50.8077 9.65174 47.7016C9.26452 47.2268 8.86384 46.9894 8.23082 46.9536C7.10284 46.8918 5.98832 46.6576 4.93778 46.2511C1.85688 45.0607 0.469626 42.8002 1.24406 39.4405C1.69525 37.4923 2.54376 35.7067 3.63807 34.0252C3.80643 33.7682 3.88051 33.5276 3.85358 33.2218C2.89058 21.4871 10.571 10.2694 22.1067 6.49336C27.255 4.8086 32.4774 4.48661 37.7132 5.84938C47.1243 8.29521 53.4882 14.0325 56.8653 22.8661C56.8889 22.9246 56.9024 22.9832 56.926 23.0417C56.9327 23.058 56.9563 23.0678 57.0506 23.1426H57.0472ZM31.0902 6.79258C30.5581 6.79258 30.0228 6.78282 29.4908 6.79583C29.1709 6.80559 28.8544 6.85113 28.5379 6.88365C21.4804 7.6187 15.6823 10.637 11.2006 15.9384C7.75605 20.0137 5.91762 24.733 5.58426 29.9759C5.33174 33.9439 6.0826 37.759 7.74596 41.3984C7.81667 41.5545 7.84696 41.74 8.08604 41.8017C9.66184 42.2116 11.0592 40.9268 10.6484 39.4145C10.5407 39.0177 10.3655 38.6404 10.2107 38.2566C9.90091 37.4923 9.55409 36.741 9.42278 35.9181C9.17361 34.3504 10.1299 32.9096 11.7292 32.5616C13.1603 32.2526 14.4802 32.5161 15.6014 33.482C16.6015 34.3407 17.3725 35.3684 17.9483 36.5328C18.3894 37.4272 18.8945 38.2826 19.588 39.0209C20.2009 39.6746 20.9383 40.0975 21.8576 40.1463C23.3189 40.2211 24.4064 40.8716 25.1506 42.0685C25.3256 42.3482 25.4805 42.4099 25.8072 42.2798C27.1069 41.7692 28.4133 41.2748 29.7298 40.8097C30.0934 40.6796 30.1474 40.5235 30.0733 40.1755C29.2382 36.2401 30.4099 32.9681 33.6828 30.4833C34.757 29.6669 35.2587 28.7075 35.2485 27.4227C35.2384 26.151 35.5179 24.9314 36.0566 23.7703C36.326 23.1881 36.5684 22.5961 36.72 21.9749C36.8479 21.461 36.8412 20.9537 36.6088 20.4658C36.1105 19.425 35.4337 19.3372 34.6929 20.2251C34.5583 20.3845 34.4472 20.5601 34.3192 20.726C33.639 21.6204 32.7434 22.1245 31.5919 22.2546C30.2181 22.4107 28.8511 22.6449 27.4772 22.8075C25.8947 22.9962 24.3256 23.3409 22.7127 23.2304C21.0865 23.1165 19.9114 22.3489 19.5645 21.0545C19.157 19.5421 19.3692 18.0557 20.0494 16.667C20.6555 15.4278 21.9754 14.9659 23.3425 15.379C24.0427 15.5904 24.6556 15.9612 25.2448 16.3677C25.8947 16.8101 26.5815 17.1808 27.3526 17.3662C28.6456 17.6785 29.6053 17.4963 30.2113 16.3092C30.6962 15.3562 31.6356 14.9985 32.6592 14.8326C33.0565 14.7675 33.464 14.748 33.8647 14.6992C35.9388 14.4521 37.5146 13.0145 37.8547 11.024C38.0399 9.94743 37.8446 8.8969 37.5987 7.84311C37.5213 7.50811 37.2654 7.49835 37.0365 7.44632C35.0802 7.00073 33.0969 6.74379 31.0834 6.79909L31.0902 6.79258ZM39.5146 8.17811C39.5685 8.58141 39.6157 8.92617 39.6628 9.26768C40.0904 12.429 38.3698 15.1448 35.3125 16.1336C34.5583 16.3775 33.7703 16.436 32.9891 16.5271C32.3865 16.5954 31.9117 16.8101 31.6019 17.3695C30.8039 18.8168 29.4908 19.3112 27.8577 19.1811C26.356 19.064 25.1202 18.3647 23.9114 17.5679C22.2481 16.4718 21.5376 16.7938 21.2581 18.716C20.9147 21.087 21.4703 21.718 23.9518 21.5001C26.0933 21.3114 28.2146 20.9114 30.3527 20.713C31.6962 20.5894 32.7232 20.1698 33.464 19.0087C33.9017 18.3257 34.6626 17.9061 35.5718 17.8964C36.8412 17.8834 38.0129 18.8754 38.4338 20.3162C38.8075 21.5879 38.4338 22.7685 37.9152 23.9069C37.3429 25.1688 36.9557 26.4535 37.023 27.8456C37.0297 27.9887 37.0061 28.135 36.9893 28.2749C36.8008 29.7417 36.0836 30.8833 34.8411 31.7712C32.1238 33.7129 30.8915 37.1117 31.841 39.8926C35.6526 38.5981 46.8516 32.2624 48.9728 30.1906C48.1581 29.6995 47.3499 29.2018 46.5351 28.7205C45.7943 28.2846 45.4542 27.6699 45.4644 26.8243C45.4812 25.3965 45.9222 24.1118 46.754 22.9507C47.9257 21.3114 48.7069 19.5324 48.8685 17.5321C48.9493 16.5043 48.9527 15.4733 49.0167 14.4456C49.0402 14.0813 48.9257 13.8341 48.653 13.5804C46.9761 12.0355 45.1209 10.7345 43.0805 9.67749C41.9592 9.0953 40.811 8.57166 39.5146 8.18137V8.17811ZM11.3757 47.0674C13.1906 49.1815 15.2143 50.863 17.487 52.2746C17.8473 52.499 17.9415 52.2973 18.1167 52.0762C19.3659 50.5117 20.908 50.1702 22.7397 51.0354C23.9047 51.585 25.0798 52.1184 26.2246 52.7006C27.0866 53.1397 27.9048 53.0974 28.7062 52.6193C29.2484 52.2973 29.7669 51.9363 30.2887 51.5786C31.5481 50.7199 32.8916 49.9914 34.4809 50.2255C36.9186 50.5866 38.7705 51.8615 39.9491 53.9691C40.1511 54.3268 40.2958 54.3659 40.646 54.2228C44.0973 52.8372 47.1142 50.8467 49.6766 48.2123C49.9224 47.9586 49.9695 47.822 49.7136 47.5163C48.2759 45.7957 48.3869 43.9646 49.983 42.3644C50.2793 42.0684 50.5756 41.7725 50.8551 41.4635C50.9561 41.3529 51.1245 41.2098 50.9998 41.0504C50.8989 40.9138 50.7002 40.8911 50.5251 40.9333C50.3399 40.9789 50.1648 41.0537 49.983 41.109C49.1716 41.3627 48.35 41.3854 47.5318 41.1513C45.7775 40.6504 44.6326 39.0632 44.8785 37.4825C45.1747 35.6059 46.5654 34.474 48.5554 34.4968C48.8112 34.4968 49.0672 34.5033 49.323 34.5065C50.0066 34.5163 50.3837 34.1293 50.5757 33.5568C50.7641 32.9974 50.7474 32.4217 50.5655 31.8526C50.4577 31.5143 50.3197 31.3484 49.9595 31.6542C49.6059 31.9501 49.2187 32.2071 48.8382 32.4738C43.865 35.9279 38.5752 38.8583 32.9891 41.2846C32.5751 41.4635 32.4336 41.6001 32.7199 42.0262C33.134 42.6441 33.5009 43.2978 33.7602 44.0004C34.5381 46.1275 33.5212 48.0074 31.2618 48.5863C29.787 48.9636 28.4369 48.6741 27.2113 47.809C26.1742 47.0772 25.4166 46.1112 24.8239 45.0282C24.595 44.6118 24.3964 44.4948 23.9047 44.6639C22.9653 44.9891 21.9956 45.2363 21.0325 45.4932C17.9045 46.3194 14.726 46.8951 11.3689 47.0642L11.3757 47.0674ZM51.1547 46.469C55.3098 42.2766 57.9765 31.3907 55.9832 26.7137C54.7171 27.8878 53.431 29.0295 52.0571 30.0735C51.8113 30.2589 51.7844 30.402 51.9461 30.6719C52.5387 31.6672 52.5891 32.7535 52.3669 33.8463C52.0841 35.2286 50.8955 36.1653 49.4207 36.2271C48.9728 36.2466 48.5217 36.2108 48.0806 36.2563C47.3937 36.3246 46.9728 36.7247 46.7506 37.3427C46.5284 37.9671 46.6361 38.52 47.131 38.9851C47.8752 39.6812 48.7338 39.7462 49.6732 39.4145C50.8181 39.0112 52.0437 39.3266 52.5959 40.1528C53.0976 40.9008 52.9023 41.8798 52.0504 42.7905C51.7508 43.1125 51.414 43.4019 51.121 43.7272C50.2793 44.6639 50.2961 45.5063 51.1547 46.4755V46.469ZM8.86384 43.5613C9.12984 43.9776 9.42614 44.3809 9.65174 44.82C9.89754 45.2948 10.2578 45.4022 10.7797 45.3924C12.7697 45.3534 14.7293 45.1062 16.6823 44.7517C18.9012 44.3484 21.0729 43.763 23.2313 43.132C23.6152 43.0214 23.6521 42.9011 23.3896 42.6116C22.9889 42.166 22.504 41.9253 21.898 41.8831C20.5241 41.7887 19.3523 41.2814 18.3995 40.2991C17.5611 39.4307 16.928 38.4387 16.4062 37.3752C15.9078 36.3572 15.2547 35.4498 14.3791 34.7082C13.6486 34.087 12.3521 33.9601 11.6922 34.4122C11.0996 34.8188 11.0221 35.4627 11.4262 36.5621C11.47 36.6792 11.5171 36.793 11.5609 36.9068C11.8504 37.6354 12.2006 38.3411 12.3959 39.1022C12.8572 40.8878 12.1266 42.4132 10.4295 43.1092C9.94468 43.3076 9.41604 43.4084 8.86721 43.5646L8.86384 43.5613ZM50.7945 15.8376C50.7608 15.9612 50.7373 16.0132 50.7373 16.0653C50.7373 19.0152 49.8753 21.692 48.0974 24.1053C47.5352 24.8696 47.2624 25.764 47.2388 26.717C47.2321 27.0097 47.3263 27.2048 47.6092 27.3642C48.488 27.8651 49.3601 28.3822 50.2086 28.9319C50.5016 29.1238 50.6565 29.0132 50.8652 28.8441C52.3804 27.6374 53.8417 26.3755 55.2357 25.0387C55.5253 24.759 55.5589 24.5183 55.4445 24.1768C55.0471 23.006 54.6027 21.8481 54.0437 20.739C53.1683 19.0022 52.1278 17.3695 50.7978 15.8343L50.7945 15.8376ZM31.5447 56.0214C33.3797 56.0506 35.6897 55.7091 37.9591 55.1074C38.2116 55.0424 38.5718 55.0652 38.316 54.5838C36.9389 51.9721 33.6963 51.224 31.2955 52.9934C30.7366 53.4064 30.1575 53.7869 29.548 54.1252C28.1641 54.8895 26.7768 54.9221 25.3526 54.2C24.1674 53.5983 22.9586 53.0421 21.7531 52.4795C20.9854 52.1217 20.3928 52.2453 19.7766 52.8145C19.3996 53.1625 19.4063 53.3381 19.9181 53.5723C23.4333 55.1822 27.127 56.0214 31.5447 56.0214ZM30.4942 47.0382C31.8612 47.0186 32.6794 45.8413 31.9825 44.3094C31.7029 43.6914 31.3225 43.1157 31.0026 42.514C30.8848 42.2961 30.7737 42.2376 30.5076 42.3416C29.2113 42.849 27.9015 43.3369 26.5917 43.8085C26.3021 43.9126 26.2313 43.9971 26.4031 44.2736C26.8678 45.0184 27.3796 45.7209 28.0732 46.2836C28.6625 46.7584 29.3325 47.0447 30.4942 47.0414V47.0382ZM7.80993 45.2005C6.07587 42.4522 4.95462 39.5966 4.25426 36.4482C3.56064 37.772 3.10607 39.0047 2.88384 40.3089C2.64141 41.7432 2.93098 42.9954 4.20038 43.9386C5.23409 44.7062 6.43614 44.9598 7.80993 45.2005Z"/>
</mask>
<path d="M57.0472 23.1426C58.8149 21.0415 60.5221 18.9372 61.1214 16.2279C61.5961 14.0813 60.778 12.5884 58.6903 11.7038C57.4445 11.1769 56.1246 10.9817 54.7171 10.8614C54.9596 11.3622 55.3637 11.6907 55.6634 12.0875C55.8384 12.3185 56.0506 12.5299 56.2088 12.7706C56.4748 13.1804 56.3906 13.5739 56.0102 13.8699C55.6263 14.1723 55.1818 14.1723 54.8619 13.8113C53.8754 12.7022 52.9057 11.5802 51.9797 10.4255C51.6531 10.019 51.7912 9.55389 52.2356 9.23841C53.3838 8.4188 54.532 7.60244 55.6936 6.79909C56.1751 6.46408 56.6903 6.53239 56.9967 6.92268C57.2998 7.30972 57.2122 7.8171 56.7543 8.16511C56.33 8.49035 55.8889 8.79283 55.3367 9.19288C56.7206 9.32948 57.9226 9.5539 59.0675 9.99623C61.1316 10.7931 62.6332 12.0908 62.97 14.3285C63.1854 15.753 62.8252 17.1093 62.2696 18.42C61.2628 20.7943 59.6971 22.8173 57.9361 24.707C57.6432 25.0225 57.586 25.3054 57.6668 25.699C59.3806 33.7682 57.7072 41.1285 52.4747 47.6301C48.0604 53.1137 42.1982 56.3726 35.097 57.4329C29.4672 58.2753 24.063 57.4232 18.945 54.9936C15.2748 53.2503 12.1771 50.8077 9.65174 47.7016C9.26452 47.2268 8.86384 46.9894 8.23082 46.9536C7.10284 46.8918 5.98832 46.6576 4.93778 46.2511C1.85688 45.0607 0.469626 42.8002 1.24406 39.4405C1.69525 37.4923 2.54376 35.7067 3.63807 34.0252C3.80643 33.7682 3.88051 33.5276 3.85358 33.2218C2.89058 21.4871 10.571 10.2694 22.1067 6.49336C27.255 4.8086 32.4774 4.48661 37.7132 5.84938C47.1243 8.29521 53.4882 14.0325 56.8653 22.8661C56.8889 22.9246 56.9024 22.9832 56.926 23.0417C56.9327 23.058 56.9563 23.0678 57.0506 23.1426H57.0472ZM31.0902 6.79258C30.5581 6.79258 30.0228 6.78282 29.4908 6.79583C29.1709 6.80559 28.8544 6.85113 28.5379 6.88365C21.4804 7.6187 15.6823 10.637 11.2006 15.9384C7.75605 20.0137 5.91762 24.733 5.58426 29.9759C5.33174 33.9439 6.0826 37.759 7.74596 41.3984C7.81667 41.5545 7.84696 41.74 8.08604 41.8017C9.66184 42.2116 11.0592 40.9268 10.6484 39.4145C10.5407 39.0177 10.3655 38.6404 10.2107 38.2566C9.90091 37.4923 9.55409 36.741 9.42278 35.9181C9.17361 34.3504 10.1299 32.9096 11.7292 32.5616C13.1603 32.2526 14.4802 32.5161 15.6014 33.482C16.6015 34.3407 17.3725 35.3684 17.9483 36.5328C18.3894 37.4272 18.8945 38.2826 19.588 39.0209C20.2009 39.6746 20.9383 40.0975 21.8576 40.1463C23.3189 40.2211 24.4064 40.8716 25.1506 42.0685C25.3256 42.3482 25.4805 42.4099 25.8072 42.2798C27.1069 41.7692 28.4133 41.2748 29.7298 40.8097C30.0934 40.6796 30.1474 40.5235 30.0733 40.1755C29.2382 36.2401 30.4099 32.9681 33.6828 30.4833C34.757 29.6669 35.2587 28.7075 35.2485 27.4227C35.2384 26.151 35.5179 24.9314 36.0566 23.7703C36.326 23.1881 36.5684 22.5961 36.72 21.9749C36.8479 21.461 36.8412 20.9537 36.6088 20.4658C36.1105 19.425 35.4337 19.3372 34.6929 20.2251C34.5583 20.3845 34.4472 20.5601 34.3192 20.726C33.639 21.6204 32.7434 22.1245 31.5919 22.2546C30.2181 22.4107 28.8511 22.6449 27.4772 22.8075C25.8947 22.9962 24.3256 23.3409 22.7127 23.2304C21.0865 23.1165 19.9114 22.3489 19.5645 21.0545C19.157 19.5421 19.3692 18.0557 20.0494 16.667C20.6555 15.4278 21.9754 14.9659 23.3425 15.379C24.0427 15.5904 24.6556 15.9612 25.2448 16.3677C25.8947 16.8101 26.5815 17.1808 27.3526 17.3662C28.6456 17.6785 29.6053 17.4963 30.2113 16.3092C30.6962 15.3562 31.6356 14.9985 32.6592 14.8326C33.0565 14.7675 33.464 14.748 33.8647 14.6992C35.9388 14.4521 37.5146 13.0145 37.8547 11.024C38.0399 9.94743 37.8446 8.8969 37.5987 7.84311C37.5213 7.50811 37.2654 7.49835 37.0365 7.44632C35.0802 7.00073 33.0969 6.74379 31.0834 6.79909L31.0902 6.79258ZM39.5146 8.17811C39.5685 8.58141 39.6157 8.92617 39.6628 9.26768C40.0904 12.429 38.3698 15.1448 35.3125 16.1336C34.5583 16.3775 33.7703 16.436 32.9891 16.5271C32.3865 16.5954 31.9117 16.8101 31.6019 17.3695C30.8039 18.8168 29.4908 19.3112 27.8577 19.1811C26.356 19.064 25.1202 18.3647 23.9114 17.5679C22.2481 16.4718 21.5376 16.7938 21.2581 18.716C20.9147 21.087 21.4703 21.718 23.9518 21.5001C26.0933 21.3114 28.2146 20.9114 30.3527 20.713C31.6962 20.5894 32.7232 20.1698 33.464 19.0087C33.9017 18.3257 34.6626 17.9061 35.5718 17.8964C36.8412 17.8834 38.0129 18.8754 38.4338 20.3162C38.8075 21.5879 38.4338 22.7685 37.9152 23.9069C37.3429 25.1688 36.9557 26.4535 37.023 27.8456C37.0297 27.9887 37.0061 28.135 36.9893 28.2749C36.8008 29.7417 36.0836 30.8833 34.8411 31.7712C32.1238 33.7129 30.8915 37.1117 31.841 39.8926C35.6526 38.5981 46.8516 32.2624 48.9728 30.1906C48.1581 29.6995 47.3499 29.2018 46.5351 28.7205C45.7943 28.2846 45.4542 27.6699 45.4644 26.8243C45.4812 25.3965 45.9222 24.1118 46.754 22.9507C47.9257 21.3114 48.7069 19.5324 48.8685 17.5321C48.9493 16.5043 48.9527 15.4733 49.0167 14.4456C49.0402 14.0813 48.9257 13.8341 48.653 13.5804C46.9761 12.0355 45.1209 10.7345 43.0805 9.67749C41.9592 9.0953 40.811 8.57166 39.5146 8.18137V8.17811ZM11.3757 47.0674C13.1906 49.1815 15.2143 50.863 17.487 52.2746C17.8473 52.499 17.9415 52.2973 18.1167 52.0762C19.3659 50.5117 20.908 50.1702 22.7397 51.0354C23.9047 51.585 25.0798 52.1184 26.2246 52.7006C27.0866 53.1397 27.9048 53.0974 28.7062 52.6193C29.2484 52.2973 29.7669 51.9363 30.2887 51.5786C31.5481 50.7199 32.8916 49.9914 34.4809 50.2255C36.9186 50.5866 38.7705 51.8615 39.9491 53.9691C40.1511 54.3268 40.2958 54.3659 40.646 54.2228C44.0973 52.8372 47.1142 50.8467 49.6766 48.2123C49.9224 47.9586 49.9695 47.822 49.7136 47.5163C48.2759 45.7957 48.3869 43.9646 49.983 42.3644C50.2793 42.0684 50.5756 41.7725 50.8551 41.4635C50.9561 41.3529 51.1245 41.2098 50.9998 41.0504C50.8989 40.9138 50.7002 40.8911 50.5251 40.9333C50.3399 40.9789 50.1648 41.0537 49.983 41.109C49.1716 41.3627 48.35 41.3854 47.5318 41.1513C45.7775 40.6504 44.6326 39.0632 44.8785 37.4825C45.1747 35.6059 46.5654 34.474 48.5554 34.4968C48.8112 34.4968 49.0672 34.5033 49.323 34.5065C50.0066 34.5163 50.3837 34.1293 50.5757 33.5568C50.7641 32.9974 50.7474 32.4217 50.5655 31.8526C50.4577 31.5143 50.3197 31.3484 49.9595 31.6542C49.6059 31.9501 49.2187 32.2071 48.8382 32.4738C43.865 35.9279 38.5752 38.8583 32.9891 41.2846C32.5751 41.4635 32.4336 41.6001 32.7199 42.0262C33.134 42.6441 33.5009 43.2978 33.7602 44.0004C34.5381 46.1275 33.5212 48.0074 31.2618 48.5863C29.787 48.9636 28.4369 48.6741 27.2113 47.809C26.1742 47.0772 25.4166 46.1112 24.8239 45.0282C24.595 44.6118 24.3964 44.4948 23.9047 44.6639C22.9653 44.9891 21.9956 45.2363 21.0325 45.4932C17.9045 46.3194 14.726 46.8951 11.3689 47.0642L11.3757 47.0674ZM51.1547 46.469C55.3098 42.2766 57.9765 31.3907 55.9832 26.7137C54.7171 27.8878 53.431 29.0295 52.0571 30.0735C51.8113 30.2589 51.7844 30.402 51.9461 30.6719C52.5387 31.6672 52.5891 32.7535 52.3669 33.8463C52.0841 35.2286 50.8955 36.1653 49.4207 36.2271C48.9728 36.2466 48.5217 36.2108 48.0806 36.2563C47.3937 36.3246 46.9728 36.7247 46.7506 37.3427C46.5284 37.9671 46.6361 38.52 47.131 38.9851C47.8752 39.6812 48.7338 39.7462 49.6732 39.4145C50.8181 39.0112 52.0437 39.3266 52.5959 40.1528C53.0976 40.9008 52.9023 41.8798 52.0504 42.7905C51.7508 43.1125 51.414 43.4019 51.121 43.7272C50.2793 44.6639 50.2961 45.5063 51.1547 46.4755V46.469ZM8.86384 43.5613C9.12984 43.9776 9.42614 44.3809 9.65174 44.82C9.89754 45.2948 10.2578 45.4022 10.7797 45.3924C12.7697 45.3534 14.7293 45.1062 16.6823 44.7517C18.9012 44.3484 21.0729 43.763 23.2313 43.132C23.6152 43.0214 23.6521 42.9011 23.3896 42.6116C22.9889 42.166 22.504 41.9253 21.898 41.8831C20.5241 41.7887 19.3523 41.2814 18.3995 40.2991C17.5611 39.4307 16.928 38.4387 16.4062 37.3752C15.9078 36.3572 15.2547 35.4498 14.3791 34.7082C13.6486 34.087 12.3521 33.9601 11.6922 34.4122C11.0996 34.8188 11.0221 35.4627 11.4262 36.5621C11.47 36.6792 11.5171 36.793 11.5609 36.9068C11.8504 37.6354 12.2006 38.3411 12.3959 39.1022C12.8572 40.8878 12.1266 42.4132 10.4295 43.1092C9.94468 43.3076 9.41604 43.4084 8.86721 43.5646L8.86384 43.5613ZM50.7945 15.8376C50.7608 15.9612 50.7373 16.0132 50.7373 16.0653C50.7373 19.0152 49.8753 21.692 48.0974 24.1053C47.5352 24.8696 47.2624 25.764 47.2388 26.717C47.2321 27.0097 47.3263 27.2048 47.6092 27.3642C48.488 27.8651 49.3601 28.3822 50.2086 28.9319C50.5016 29.1238 50.6565 29.0132 50.8652 28.8441C52.3804 27.6374 53.8417 26.3755 55.2357 25.0387C55.5253 24.759 55.5589 24.5183 55.4445 24.1768C55.0471 23.006 54.6027 21.8481 54.0437 20.739C53.1683 19.0022 52.1278 17.3695 50.7978 15.8343L50.7945 15.8376ZM31.5447 56.0214C33.3797 56.0506 35.6897 55.7091 37.9591 55.1074C38.2116 55.0424 38.5718 55.0652 38.316 54.5838C36.9389 51.9721 33.6963 51.224 31.2955 52.9934C30.7366 53.4064 30.1575 53.7869 29.548 54.1252C28.1641 54.8895 26.7768 54.9221 25.3526 54.2C24.1674 53.5983 22.9586 53.0421 21.7531 52.4795C20.9854 52.1217 20.3928 52.2453 19.7766 52.8145C19.3996 53.1625 19.4063 53.3381 19.9181 53.5723C23.4333 55.1822 27.127 56.0214 31.5447 56.0214ZM30.4942 47.0382C31.8612 47.0186 32.6794 45.8413 31.9825 44.3094C31.7029 43.6914 31.3225 43.1157 31.0026 42.514C30.8848 42.2961 30.7737 42.2376 30.5076 42.3416C29.2113 42.849 27.9015 43.3369 26.5917 43.8085C26.3021 43.9126 26.2313 43.9971 26.4031 44.2736C26.8678 45.0184 27.3796 45.7209 28.0732 46.2836C28.6625 46.7584 29.3325 47.0447 30.4942 47.0414V47.0382ZM7.80993 45.2005C6.07587 42.4522 4.95462 39.5966 4.25426 36.4482C3.56064 37.772 3.10607 39.0047 2.88384 40.3089C2.64141 41.7432 2.93098 42.9954 4.20038 43.9386C5.23409 44.7062 6.43614 44.9598 7.80993 45.2005Z" fill="black"/>
<path d="M3.35739 33.2834L3.75807 36.5098L4.75045 36.3866L4.34976 33.1602L3.35739 33.2834ZM7.74955 45.6968C8.15148 45.7457 8.78345 45.8141 9.37666 45.8604C9.67299 45.8836 9.96415 45.9017 10.2142 45.9088C10.4519 45.9155 10.6907 45.914 10.8615 45.8857L10.6979 44.8991C10.633 44.9099 10.4819 44.916 10.2426 44.9092C10.0156 44.9027 9.7426 44.886 9.4546 44.8635C8.87914 44.8185 8.26191 44.7518 7.87031 44.7042L7.74955 45.6968ZM11.3574 46.5643C10.9269 46.5743 10.2805 46.5688 9.67674 46.5498C9.05971 46.5304 8.532 46.4979 8.31517 46.4608L8.14646 47.4464C8.44375 47.4973 9.04289 47.5303 9.64527 47.5493C10.2609 47.5687 10.9265 47.5745 11.3805 47.5641L11.3574 46.5643ZM23.3883 43.6067L25.9642 42.7545L25.6501 41.8051L23.0742 42.6573L23.3883 43.6067ZM24.0564 45.1403L26.7433 44.2849L26.44 43.3321L23.753 44.1875L24.0564 45.1403ZM29.929 41.2683L32.0402 40.3512L31.6418 39.434L29.5306 40.3511L29.929 41.2683ZM30.7035 42.8016L33.1851 41.7446L32.7932 40.8246L30.3117 41.8816L30.7035 42.8016ZM49.2627 30.598L51.1551 29.2515L50.5753 28.4367L48.683 29.7832L49.2627 30.598ZM50.2604 32.0535L52.358 30.4728L51.7562 29.6742L49.6586 31.2549L50.2604 32.0535ZM55.5972 25.3841L57.4087 23.488L56.6857 22.7972L54.8741 24.6933L55.5972 25.3841ZM56.3415 27.0624L58.2944 25.0557L57.5778 24.3583L55.6249 26.365L56.3415 27.0624ZM57.0472 23.1426L56.282 22.4988L54.899 24.1426H57.0472V23.1426ZM61.1214 16.2279L62.0978 16.4439L62.0978 16.4438L61.1214 16.2279ZM58.6903 11.7038L59.0805 10.783L59.0798 10.7828L58.6903 11.7038ZM54.7171 10.8614L54.8023 9.86503L53.0514 9.71538L53.8171 11.2971L54.7171 10.8614ZM55.6634 12.0875L54.8654 12.6902L54.8664 12.6915L55.6634 12.0875ZM56.2088 12.7706L57.0475 12.226L57.0444 12.2214L56.2088 12.7706ZM56.0102 13.8699L55.3961 13.0806L55.3913 13.0844L56.0102 13.8699ZM54.8619 13.8113L55.6103 13.1481L55.6091 13.1467L54.8619 13.8113ZM51.9797 10.4255L52.7599 9.79989L52.7593 9.79913L51.9797 10.4255ZM52.2356 9.23841L52.8144 10.0539L52.8166 10.0523L52.2356 9.23841ZM55.6936 6.79909L56.2624 7.62158L56.2648 7.61991L55.6936 6.79909ZM56.9967 6.92268L57.784 6.30615L57.7833 6.3052L56.9967 6.92268ZM56.7543 8.16511L56.1492 7.3689L56.1459 7.37146L56.7543 8.16511ZM55.3367 9.19288L54.7501 8.38306L52.6159 9.92916L55.2385 10.188L55.3367 9.19288ZM59.0675 9.99623L58.7071 10.929L58.7073 10.9291L59.0675 9.99623ZM62.97 14.3285L61.9811 14.4773L61.9812 14.478L62.97 14.3285ZM62.2696 18.42L63.1902 18.8104L63.1903 18.8103L62.2696 18.42ZM57.9361 24.707L57.2045 24.0252L57.2031 24.0267L57.9361 24.707ZM57.6668 25.699L56.6872 25.9001L56.6886 25.9068L57.6668 25.699ZM52.4747 47.6301L53.2537 48.2572L53.2538 48.2571L52.4747 47.6301ZM35.097 57.4329L34.9494 56.4439L34.9491 56.4439L35.097 57.4329ZM18.945 54.9936L18.516 55.8969L18.5162 55.897L18.945 54.9936ZM9.65174 47.7016L10.4277 47.0708L10.4267 47.0696L9.65174 47.7016ZM8.23082 46.9536L8.28728 45.9552L8.28552 45.9551L8.23082 46.9536ZM4.93778 46.2511L5.29865 45.3185L5.29819 45.3183L4.93778 46.2511ZM1.24406 39.4405L0.269842 39.2149L0.26961 39.2159L1.24406 39.4405ZM3.63807 34.0252L2.80158 33.4772L2.79993 33.4797L3.63807 34.0252ZM3.85358 33.2218L2.85691 33.3036L2.85743 33.3096L3.85358 33.2218ZM22.1067 6.49336L21.7957 5.54296L21.7956 5.54298L22.1067 6.49336ZM37.7132 5.84938L37.4613 6.81714L37.4617 6.81723L37.7132 5.84938ZM56.8653 22.8661L55.9313 23.2232L55.9344 23.2315L55.9377 23.2397L56.8653 22.8661ZM56.926 23.0417L55.9984 23.4153L56.0014 23.4227L56.926 23.0417ZM57.0506 23.1426V24.1426H59.9215L57.6719 22.359L57.0506 23.1426ZM31.0902 6.79258L31.7806 7.51599L33.5863 5.79258H31.0902V6.79258ZM29.4908 6.79583L29.4663 5.79611L29.4603 5.79629L29.4908 6.79583ZM28.5379 6.88365L28.4356 5.88889L28.4343 5.88903L28.5379 6.88365ZM11.2006 15.9384L10.4369 15.2928L10.4368 15.2929L11.2006 15.9384ZM5.58426 29.9759L6.58224 30.0394L6.58225 30.0394L5.58426 29.9759ZM7.74596 41.3984L8.65686 40.9858L8.65547 40.9827L7.74596 41.3984ZM8.08604 41.8017L8.33778 40.8339L8.33593 40.8334L8.08604 41.8017ZM10.6484 39.4145L9.68327 39.6764L9.68335 39.6767L10.6484 39.4145ZM10.2107 38.2566L11.138 37.8824L11.1375 37.881L10.2107 38.2566ZM9.42278 35.9181L8.43517 36.0751L8.43527 36.0757L9.42278 35.9181ZM11.7292 32.5616L11.5182 31.5841L11.5166 31.5845L11.7292 32.5616ZM15.6014 33.482L14.9488 34.2396L14.95 34.2407L15.6014 33.482ZM17.9483 36.5328L18.8451 36.0905L18.8446 36.0895L17.9483 36.5328ZM19.588 39.0209L20.3176 38.3369L20.3169 38.3362L19.588 39.0209ZM21.8576 40.1463L21.8045 41.1449L21.8064 41.145L21.8576 40.1463ZM25.1506 42.0685L24.3014 42.5965L24.3029 42.599L25.1506 42.0685ZM25.8072 42.2798L25.4415 41.349L25.4371 41.3508L25.8072 42.2798ZM29.7298 40.8097L30.0629 41.7526L30.0667 41.7512L29.7298 40.8097ZM30.0733 40.1755L29.0951 40.3831L29.0952 40.3837L30.0733 40.1755ZM33.6828 30.4833L34.2875 31.2798L34.2879 31.2794L33.6828 30.4833ZM35.2485 27.4227L36.2485 27.4148L36.2485 27.4147L35.2485 27.4227ZM36.0566 23.7703L36.9637 24.1911L36.9641 24.1902L36.0566 23.7703ZM36.72 21.9749L35.7496 21.7333L35.7485 21.7378L36.72 21.9749ZM36.6088 20.4658L37.5116 20.0358L37.5108 20.034L36.6088 20.4658ZM34.6929 20.2251L35.4569 20.8704L35.4607 20.8657L34.6929 20.2251ZM34.3192 20.726L33.5273 20.1153L33.5233 20.1206L34.3192 20.726ZM31.5919 22.2546L31.4796 21.2609L31.479 21.261L31.5919 22.2546ZM27.4772 22.8075L27.3597 21.8144L27.3588 21.8145L27.4772 22.8075ZM22.7127 23.2304L22.6429 24.228L22.6444 24.2281L22.7127 23.2304ZM19.5645 21.0545L20.5304 20.7956L20.5301 20.7944L19.5645 21.0545ZM20.0494 16.667L20.9475 17.1069L20.9478 17.1063L20.0494 16.667ZM23.3425 15.379L23.0532 16.3363L23.0535 16.3363L23.3425 15.379ZM25.2448 16.3677L24.6769 17.1908L24.6821 17.1943L25.2448 16.3677ZM27.3526 17.3662L27.5874 16.3941L27.5864 16.3939L27.3526 17.3662ZM30.2113 16.3092L31.102 16.7639L31.1026 16.7626L30.2113 16.3092ZM32.6592 14.8326L32.8192 15.8197L32.8209 15.8194L32.6592 14.8326ZM33.8647 14.6992L33.7464 13.7062L33.7438 13.7065L33.8647 14.6992ZM37.8547 11.024L36.8692 10.8545L36.869 10.8556L37.8547 11.024ZM37.5987 7.84311L36.6244 8.06822L36.6249 8.07029L37.5987 7.84311ZM37.0365 7.44632L36.8144 8.42135L36.8148 8.42144L37.0365 7.44632ZM31.0834 6.79909L30.3929 6.07568L28.5128 7.87006L31.1108 7.79871L31.0834 6.79909ZM39.5146 8.17811L40.5058 8.04579L38.5146 8.17811H39.5146ZM39.6628 9.26768L40.6538 9.13364L40.6534 9.131L39.6628 9.26768ZM35.3125 16.1336L35.6202 17.0851L35.6202 17.0851L35.3125 16.1336ZM32.9891 16.5271L33.1018 17.5207L33.105 17.5204L32.9891 16.5271ZM31.6019 17.3695L30.7271 16.885L30.7262 16.8867L31.6019 17.3695ZM27.8577 19.1811L27.9371 18.1843L27.9355 18.1841L27.8577 19.1811ZM23.9114 17.5679L24.4618 16.733L24.4617 16.7329L23.9114 17.5679ZM21.2581 18.716L20.2685 18.5721L20.2684 18.5727L21.2581 18.716ZM23.9518 21.5001L24.0393 22.4963L24.0396 22.4962L23.9518 21.5001ZM30.3527 20.713L30.2611 19.7172L30.2603 19.7173L30.3527 20.713ZM33.464 19.0087L32.622 18.4691L32.6209 18.4708L33.464 19.0087ZM35.5718 17.8964L35.5615 16.8965L35.5611 16.8965L35.5718 17.8964ZM38.4338 20.3162L37.4739 20.5966L37.4744 20.5982L38.4338 20.3162ZM37.9152 23.9069L37.0052 23.4924L37.0045 23.4938L37.9152 23.9069ZM37.023 27.8456L38.0219 27.7987L38.0218 27.7973L37.023 27.8456ZM36.9893 28.2749L37.9812 28.4024L37.9821 28.3944L36.9893 28.2749ZM34.8411 31.7712L35.4225 32.5848L35.4225 32.5848L34.8411 31.7712ZM31.841 39.8926L30.8946 40.2157L31.2173 41.1605L32.1626 40.8395L31.841 39.8926ZM48.9728 30.1906L49.6716 30.906L50.5971 30.002L49.4891 29.3341L48.9728 30.1906ZM46.5351 28.7205L47.0437 27.8595L47.0422 27.8586L46.5351 28.7205ZM45.4644 26.8243L46.4643 26.8363L46.4643 26.8361L45.4644 26.8243ZM46.754 22.9507L47.5669 23.533L47.5675 23.5322L46.754 22.9507ZM48.8685 17.5321L49.8652 17.6126L49.8654 17.6105L48.8685 17.5321ZM49.0167 14.4456L48.0187 14.3811L48.0186 14.3835L49.0167 14.4456ZM48.653 13.5804L49.3342 12.8482L49.3306 12.8449L48.653 13.5804ZM43.0805 9.67749L42.6197 10.565L42.6205 10.5654L43.0805 9.67749ZM39.5146 8.18137H38.5146V8.92463L39.2263 9.13891L39.5146 8.18137ZM11.3757 47.0674L12.1345 46.416L11.9949 46.2534L11.8009 46.1623L11.3757 47.0674ZM17.487 52.2746L18.0156 51.4258L18.0146 51.4251L17.487 52.2746ZM18.1167 52.0762L17.3352 51.4522L17.3328 51.4552L18.1167 52.0762ZM22.7397 51.0354L22.3126 51.9396L22.313 51.9398L22.7397 51.0354ZM26.2246 52.7006L26.6785 51.8095L26.6779 51.8092L26.2246 52.7006ZM28.7062 52.6193L28.1956 51.7595L28.1938 51.7605L28.7062 52.6193ZM30.2887 51.5786L29.7254 50.7524L29.7233 50.7538L30.2887 51.5786ZM34.4809 50.2255L34.6274 49.2363L34.6266 49.2362L34.4809 50.2255ZM39.9491 53.9691L39.0762 54.4572L39.0783 54.4609L39.9491 53.9691ZM40.646 54.2228L40.2735 53.2948L40.2678 53.2971L40.646 54.2228ZM49.6766 48.2123L50.3935 48.9095L50.3949 48.908L49.6766 48.2123ZM49.7136 47.5163L48.9463 48.1575L48.9468 48.1581L49.7136 47.5163ZM49.983 42.3644L49.2762 41.657L49.275 41.6582L49.983 42.3644ZM50.8551 41.4635L50.1168 40.7889L50.1133 40.7928L50.8551 41.4635ZM50.9998 41.0504L50.1956 41.6448L50.2037 41.6556L50.212 41.6663L50.9998 41.0504ZM50.5251 40.9333L50.2908 39.9611L50.286 39.9623L50.5251 40.9333ZM49.983 41.109L49.692 40.1523L49.6846 40.1546L49.983 41.109ZM47.5318 41.1513L47.8068 40.1899L47.8063 40.1897L47.5318 41.1513ZM44.8785 37.4825L43.8907 37.3266L43.8903 37.3288L44.8785 37.4825ZM48.5554 34.4968L48.5439 35.4968H48.5554V34.4968ZM49.323 34.5065L49.3374 33.5066L49.3355 33.5066L49.323 34.5065ZM50.5757 33.5568L49.628 33.2375L49.6275 33.2388L50.5757 33.5568ZM50.5655 31.8526L49.6127 32.1561L49.613 32.157L50.5655 31.8526ZM49.9595 31.6542L50.6012 32.4211L50.6066 32.4165L49.9595 31.6542ZM48.8382 32.4738L49.4087 33.2951L49.4122 33.2927L48.8382 32.4738ZM32.9891 41.2846L33.3858 42.2026L33.3875 42.2018L32.9891 41.2846ZM32.7199 42.0262L33.5505 41.4694L33.5499 41.4686L32.7199 42.0262ZM33.7602 44.0004L34.6994 43.6569L34.6984 43.6542L33.7602 44.0004ZM31.2618 48.5863L31.5097 49.5551L31.51 49.555L31.2618 48.5863ZM27.2113 47.809L27.7879 46.992L27.7878 46.9919L27.2113 47.809ZM24.8239 45.0282L25.7012 44.5482L25.7002 44.5463L24.8239 45.0282ZM23.9047 44.6639L23.5795 43.7183L23.5776 43.7189L23.9047 44.6639ZM21.0325 45.4932L21.2879 46.46L21.2903 46.4594L21.0325 45.4932ZM11.3689 47.0642L11.3186 46.0655L10.9437 47.9693L11.3689 47.0642ZM51.1547 46.469L50.4445 45.7651L50.1547 46.0574V46.469H51.1547ZM55.9832 26.7137L56.9031 26.3216L56.3457 25.0137L55.3032 25.9805L55.9832 26.7137ZM52.0571 30.0735L52.6593 30.8719L52.6622 30.8697L52.0571 30.0735ZM51.9461 30.6719L52.8053 30.1603L52.804 30.1582L51.9461 30.6719ZM52.3669 33.8463L53.3466 34.0467L53.3469 34.0455L52.3669 33.8463ZM49.4207 36.2271L49.3788 35.228L49.3772 35.228L49.4207 36.2271ZM48.0806 36.2563L48.1795 37.2514L48.1832 37.251L48.0806 36.2563ZM46.7506 37.3427L45.8096 37.0043L45.8084 37.0075L46.7506 37.3427ZM47.131 38.9851L46.4463 39.7139L46.4479 39.7154L47.131 38.9851ZM49.6732 39.4145L49.341 38.4713L49.3403 38.4716L49.6732 39.4145ZM52.5959 40.1528L51.7645 40.7085L51.7654 40.7098L52.5959 40.1528ZM52.0504 42.7905L51.3201 42.1074L51.3184 42.1092L52.0504 42.7905ZM51.121 43.7272L50.378 43.058L50.3772 43.0588L51.121 43.7272ZM51.1547 46.4755L50.4062 47.1386L52.1547 49.1124V46.4755H51.1547ZM8.86384 43.5613L9.5643 42.8476L8.02117 44.0997L8.86384 43.5613ZM9.65174 44.82L8.76226 45.277L8.76369 45.2797L9.65174 44.82ZM10.7797 45.3924L10.7985 46.3922L10.7993 46.3922L10.7797 45.3924ZM16.6823 44.7517L16.8609 45.7356L16.8611 45.7356L16.6823 44.7517ZM23.2313 43.132L22.9544 42.1711L22.9507 42.1722L23.2313 43.132ZM23.3896 42.6116L22.646 43.2803L22.6489 43.2834L23.3896 42.6116ZM21.898 41.8831L21.9674 40.8855L21.9665 40.8854L21.898 41.8831ZM18.3995 40.2991L17.6801 40.9937L17.6817 40.9954L18.3995 40.2991ZM16.4062 37.3752L15.5081 37.8149L15.5085 37.8157L16.4062 37.3752ZM14.3791 34.7082L13.7313 35.47L13.7328 35.4713L14.3791 34.7082ZM11.6922 34.4122L11.1271 33.5872L11.1265 33.5876L11.6922 34.4122ZM11.4262 36.5621L10.4875 36.9071L10.4896 36.9125L11.4262 36.5621ZM11.5609 36.9068L10.6276 37.2661L10.6316 37.2761L11.5609 36.9068ZM12.3959 39.1022L11.4273 39.3507L11.4277 39.3523L12.3959 39.1022ZM10.4295 43.1092L10.8082 44.0347L10.809 44.0344L10.4295 43.1092ZM8.86721 43.5646L8.16674 44.2783L8.58171 44.6856L9.14094 44.5264L8.86721 43.5646ZM50.7945 15.8376L50.0886 15.1293L49.8998 15.3175L49.8297 15.5746L50.7945 15.8376ZM48.0974 24.1053L47.2923 23.5122L47.2919 23.5127L48.0974 24.1053ZM47.2388 26.717L46.2391 26.6923L46.2391 26.6941L47.2388 26.717ZM47.6092 27.3642L48.1043 26.4954L48.1001 26.493L47.6092 27.3642ZM50.2086 28.9319L50.7566 28.0954L50.7523 28.0926L50.2086 28.9319ZM50.8652 28.8441L50.2422 28.0618L50.2357 28.0671L50.8652 28.8441ZM55.2357 25.0387L55.9278 25.7605L55.9303 25.758L55.2357 25.0387ZM55.4445 24.1768L56.3927 23.8592L56.3914 23.8554L55.4445 24.1768ZM54.0437 20.739L54.9367 20.289L54.9367 20.2889L54.0437 20.739ZM50.7978 15.8343L51.5536 15.1795L50.8515 14.369L50.0919 15.126L50.7978 15.8343ZM31.5447 56.0214L31.5607 55.0215L31.5527 55.0214H31.5447V56.0214ZM37.9591 55.1074L37.7098 54.1389L37.7028 54.1408L37.9591 55.1074ZM38.316 54.5838L37.4314 55.0502L37.4329 55.0531L38.316 54.5838ZM31.2955 52.9934L30.7022 52.1884L30.7012 52.1891L31.2955 52.9934ZM29.548 54.1252L30.0315 55.0006L30.0334 54.9995L29.548 54.1252ZM25.3526 54.2L24.8999 55.0917L24.9004 55.0919L25.3526 54.2ZM21.7531 52.4795L22.176 51.5733L22.1755 51.5731L21.7531 52.4795ZM19.7766 52.8145L20.4548 53.5494L20.4552 53.5491L19.7766 52.8145ZM19.9181 53.5723L20.3345 52.6631L20.3342 52.663L19.9181 53.5723ZM30.4942 47.0382L30.4798 46.0383L29.4942 46.0524V47.0382H30.4942ZM31.9825 44.3094L31.0713 44.7215L31.0722 44.7235L31.9825 44.3094ZM31.0026 42.514L31.8855 42.0445L31.8822 42.0384L31.0026 42.514ZM30.5076 42.3416L30.1436 41.4102L30.1431 41.4104L30.5076 42.3416ZM26.5917 43.8085L26.93 44.7495L26.9304 44.7494L26.5917 43.8085ZM26.4031 44.2736L25.5536 44.8012L25.5547 44.8029L26.4031 44.2736ZM28.0732 46.2836L27.4431 47.0602L27.4458 47.0623L28.0732 46.2836ZM30.4942 47.0414L30.497 48.0414L31.4942 48.0386V47.0414H30.4942ZM7.80993 45.2005L7.63735 46.1855L9.85949 46.5748L8.65566 44.6669L7.80993 45.2005ZM4.25426 36.4482L5.2304 36.2311L4.63694 33.5632L3.36849 35.9841L4.25426 36.4482ZM2.88384 40.3089L1.89805 40.1409L1.89783 40.1422L2.88384 40.3089ZM4.20038 43.9386L3.60397 44.7413L3.60421 44.7415L4.20038 43.9386ZM57.8124 23.7864C59.5634 21.7052 61.4381 19.426 62.0978 16.4439L60.145 16.0119C59.6061 18.4484 58.0665 20.3778 56.282 22.4988L57.8124 23.7864ZM62.0978 16.4438C62.3722 15.2033 62.2959 14.0344 61.7467 13.0174C61.2009 12.0069 60.2625 11.2839 59.0805 10.783L58.3002 12.6246C59.2058 13.0083 59.7202 13.4741 59.9869 13.9678C60.25 14.455 60.3454 15.1059 60.145 16.012L62.0978 16.4438ZM59.0798 10.7828C57.6856 10.1931 56.2383 9.98777 54.8023 9.86503L54.632 11.8578C56.011 11.9756 57.2035 12.1607 58.3008 12.6248L59.0798 10.7828ZM53.8171 11.2971C53.9953 11.6653 54.2241 11.9508 54.4138 12.1692C54.6328 12.4213 54.7417 12.5263 54.8654 12.6902L56.4614 11.4848C56.2854 11.2519 56.0423 10.9942 55.9237 10.8577C55.7759 10.6874 55.6814 10.5583 55.6172 10.4257L53.8171 11.2971ZM54.8664 12.6915C54.9753 12.8352 55.0993 12.9773 55.1793 13.0717C55.2708 13.1798 55.3296 13.2537 55.3731 13.3198L57.0444 12.2214C56.9297 12.0468 56.8033 11.8947 56.7055 11.7792C56.5961 11.6499 56.5265 11.5708 56.4604 11.4835L54.8664 12.6915ZM55.37 13.3152C55.384 13.3366 55.3773 13.3333 55.3706 13.305C55.3633 13.2742 55.3596 13.2287 55.3694 13.1768C55.3905 13.0653 55.4474 13.0407 55.3961 13.0806L56.6242 14.6592C56.9534 14.4031 57.2426 14.0337 57.3344 13.5491C57.4277 13.0569 57.2886 12.5974 57.0475 12.226L55.37 13.3152ZM55.3913 13.0844C55.3435 13.1221 55.3623 13.0869 55.4488 13.0901C55.4913 13.0916 55.5329 13.1026 55.5673 13.1197C55.6007 13.1363 55.6135 13.1517 55.6103 13.1481L54.1135 14.4745C54.4351 14.8375 54.8748 15.0703 55.3753 15.0887C55.86 15.1065 56.2929 14.9201 56.629 14.6554L55.3913 13.0844ZM55.6091 13.1467C54.6283 12.0441 53.671 10.9361 52.7599 9.79989L51.1996 11.0511C52.1404 12.2243 53.1225 13.3603 54.1147 14.4759L55.6091 13.1467ZM52.7593 9.79913C52.7583 9.79793 52.7778 9.8224 52.7904 9.87362C52.8034 9.92641 52.8027 9.9819 52.7913 10.0297C52.7697 10.1201 52.7319 10.1124 52.8144 10.0539L51.6568 8.42297C51.2948 8.67988 50.9658 9.06253 50.8458 9.56591C50.7181 10.1016 50.8625 10.6316 51.2002 11.0519L52.7593 9.79913ZM52.8166 10.0523C53.9644 9.23303 55.1073 8.42038 56.2624 7.62158L55.1249 5.9766C53.9566 6.7845 52.8033 7.60457 51.6546 8.42449L52.8166 10.0523ZM56.2648 7.61991C56.3036 7.59294 56.3272 7.58509 56.3327 7.5835C56.3377 7.58208 56.3277 7.58568 56.3058 7.58337C56.2835 7.58102 56.2595 7.57352 56.2385 7.56161C56.2178 7.5499 56.2094 7.53932 56.2101 7.54016L57.7833 6.3052C57.4726 5.9094 57.0266 5.64834 56.5158 5.59442C56.0119 5.54124 55.5269 5.69683 55.1225 5.97827L56.2648 7.61991ZM56.2093 7.53921C56.2045 7.53298 56.1907 7.51232 56.1818 7.47709C56.1728 7.44152 56.1722 7.40489 56.1782 7.37323C56.1907 7.30688 56.2177 7.31691 56.1492 7.36891L57.3593 8.96131C57.7488 8.6653 58.0485 8.24764 58.1435 7.74383C58.2407 7.22863 58.1044 6.71528 57.784 6.30615L56.2093 7.53921ZM56.1459 7.37146C55.7346 7.68671 55.3306 7.9625 54.7501 8.38306L55.9234 10.0027C56.4473 9.62315 56.9253 9.29399 57.3626 8.95876L56.1459 7.37146ZM55.2385 10.188C56.5741 10.3199 57.6781 10.5314 58.7071 10.929L59.4279 9.06343C58.1672 8.57635 56.867 8.33908 55.435 8.19772L55.2385 10.188ZM58.7073 10.9291C60.574 11.6498 61.7167 12.7202 61.9811 14.4773L63.9588 14.1797C63.5497 11.4614 61.6892 9.93643 59.4276 9.06334L58.7073 10.9291ZM61.9812 14.478C62.1568 15.6391 61.8728 16.7939 61.3489 18.0297L63.1903 18.8103C63.7776 17.4247 64.214 15.8669 63.9587 14.179L61.9812 14.478ZM61.3489 18.0296C60.4071 20.2507 58.929 22.1747 57.2045 24.0252L58.6677 25.3888C60.4651 23.4599 62.1185 21.3379 63.1902 18.8104L61.3489 18.0296ZM57.2031 24.0267C56.9751 24.2724 56.785 24.5649 56.6926 24.9256C56.6016 25.2809 56.6284 25.6137 56.6872 25.9001L58.6464 25.4979C58.6244 25.3907 58.6394 25.3853 58.63 25.4218C58.6258 25.4384 58.6204 25.4478 58.6212 25.4465C58.6231 25.4433 58.635 25.4239 58.669 25.3873L57.2031 24.0267ZM56.6886 25.9068C58.3412 33.6877 56.736 40.7402 51.6957 47.0031L53.2538 48.2571C58.6784 41.5168 60.42 33.8487 58.645 25.4912L56.6886 25.9068ZM51.6957 47.003C47.4466 52.2815 41.8144 55.4188 34.9494 56.4439L35.2447 58.4219C42.582 57.3264 48.6743 53.9459 53.2537 48.2572L51.6957 47.003ZM34.9491 56.4439C29.5215 57.256 24.3176 56.4371 19.3739 54.0902L18.5162 55.897C23.8084 58.4093 29.413 59.2945 35.245 58.4219L34.9491 56.4439ZM19.3741 54.0903C15.8385 52.4109 12.8592 50.0615 10.4277 47.0708L8.87583 48.3324C11.495 51.5539 14.7112 54.0896 18.516 55.8969L19.3741 54.0903ZM10.4267 47.0696C10.1781 46.7647 9.8849 46.4866 9.50925 46.2834C9.129 46.0777 8.72177 45.9798 8.28728 45.9552L8.17435 47.952C8.37289 47.9632 8.4825 48.0019 8.55766 48.0425C8.63741 48.0857 8.73817 48.1636 8.87678 48.3336L10.4267 47.0696ZM8.28552 45.9551C7.25895 45.8989 6.24803 45.6858 5.29865 45.3185L4.57691 47.1837C5.72861 47.6294 6.94673 47.8847 8.17611 47.9521L8.28552 45.9551ZM5.29819 45.3183C3.90438 44.7798 3.0068 44.0439 2.51763 43.1706C2.03279 42.305 1.87227 41.1672 2.2185 39.6651L0.26961 39.2159C-0.158586 41.0735 -0.0126982 42.7458 0.772709 44.148C1.55377 45.5424 2.89028 46.532 4.57737 47.1839L5.29819 45.3183ZM2.21827 39.6661C2.63714 37.8575 3.42928 36.1793 4.47621 34.5707L2.79993 33.4797C1.65824 35.234 0.753368 37.1271 0.269843 39.2149L2.21827 39.6661ZM4.47456 34.5732C4.74641 34.1582 4.8993 33.6969 4.84972 33.134L2.85743 33.3096C2.86141 33.3547 2.85666 33.3701 2.85544 33.3745C2.85324 33.3825 2.84389 33.4126 2.80158 33.4772L4.47456 34.5732ZM4.85022 33.14C3.9269 21.8888 11.3004 11.0829 22.4178 7.44374L21.7956 5.54298C9.84159 9.45594 1.85426 21.0854 2.85693 33.3036L4.85022 33.14ZM22.4177 7.44376C27.4049 5.81171 32.4313 5.50792 37.4613 6.81714L37.9651 4.88162C32.5236 3.4653 27.105 3.80549 21.7957 5.54296L22.4177 7.44376ZM37.4617 6.81723C46.5624 9.1824 52.6705 14.6939 55.9313 23.2232L57.7994 22.509C54.3059 13.3711 47.6862 7.40802 37.9648 4.88153L37.4617 6.81723ZM55.9377 23.2397C55.933 23.228 55.9314 23.2213 55.9424 23.2559C55.9499 23.2798 55.9701 23.3451 55.9984 23.4153L57.8536 22.6681C57.8583 22.6798 57.8599 22.6865 57.849 22.6519C57.8414 22.628 57.8212 22.5627 57.7929 22.4925L55.9377 23.2397ZM56.0014 23.4227C56.0751 23.6016 56.1822 23.7181 56.2476 23.7801C56.3003 23.83 56.3515 23.8673 56.357 23.8713C56.3864 23.8933 56.397 23.9006 56.4293 23.9262L57.6719 22.359C57.6099 22.3098 57.5615 22.2748 57.5539 22.2691C57.5521 22.2677 57.558 22.2721 57.567 22.2792C57.5755 22.286 57.5965 22.303 57.6224 22.3275C57.6787 22.3808 57.7802 22.4899 57.8506 22.6607L56.0014 23.4227ZM57.0506 22.1426H57.0472V24.1426H57.0506V22.1426ZM31.0902 5.79258C30.5831 5.79258 30.0141 5.78273 29.4663 5.79613L29.5152 7.79553C30.0314 7.78291 30.5332 7.79258 31.0902 7.79258V5.79258ZM29.4603 5.79629C29.0926 5.80751 28.6983 5.8619 28.4356 5.88889L28.6401 7.87841C29.0104 7.84036 29.2492 7.80367 29.5213 7.79536L29.4603 5.79629ZM28.4343 5.88903C21.1278 6.65002 15.0903 9.78829 10.4369 15.2928L11.9643 16.584C16.2742 11.4857 21.833 8.58738 28.6414 7.87827L28.4343 5.88903ZM10.4368 15.2929C6.84993 19.5366 4.93286 24.4615 4.58628 29.9124L6.58225 30.0394C6.90237 25.0045 8.66217 20.4908 11.9643 16.5839L10.4368 15.2929ZM4.58628 29.9124C4.32274 34.0535 5.10818 38.0327 6.83645 41.8141L8.65547 40.9827C7.05702 37.4853 6.34074 33.8343 6.58224 30.0394L4.58628 29.9124ZM6.83505 41.811C6.83466 41.8102 6.83637 41.8139 6.84274 41.8298C6.84602 41.838 6.86009 41.8736 6.87001 41.8978C6.89297 41.9539 6.93672 42.0571 7.0064 42.1679C7.1744 42.435 7.44469 42.6689 7.83614 42.77L8.33593 40.8334C8.39253 40.848 8.46892 40.8791 8.54649 40.938C8.62315 40.9962 8.67189 41.0594 8.69932 41.103C8.7227 41.1402 8.73068 41.1639 8.7206 41.1394C8.714 41.1232 8.71223 41.1183 8.69939 41.0862C8.68963 41.0619 8.67493 41.0257 8.65686 40.9858L6.83505 41.811ZM7.83429 42.7695C10.0413 43.3436 12.2553 41.5149 11.6134 39.1523L9.68335 39.6767C9.8632 40.3387 9.28238 41.0796 8.33778 40.8339L7.83429 42.7695ZM11.6135 39.1526C11.4851 38.6796 11.2669 38.2019 11.138 37.8824L9.28333 38.6308C9.46415 39.0789 9.59628 39.3558 9.68327 39.6764L11.6135 39.1526ZM11.1375 37.881C10.8014 37.0519 10.5187 36.4399 10.4103 35.7605L8.43527 36.0757C8.58949 37.0421 9.0004 37.9327 9.28391 38.6322L11.1375 37.881ZM10.4104 35.7611C10.2438 34.7131 10.8646 33.7731 11.9418 33.5387L11.5166 31.5845C9.39512 32.0461 8.1034 33.9876 8.43517 36.0751L10.4104 35.7611ZM11.9403 33.5391C13.1023 33.2882 14.0926 33.5021 14.9488 34.2396L16.2541 32.7243C14.8678 31.5301 13.2183 31.217 11.5182 31.5841L11.9403 33.5391ZM14.95 34.2407C15.8403 35.0052 16.531 35.9228 17.0519 36.976L18.8446 36.0895C18.2139 34.814 17.3627 33.6762 16.2529 32.7233L14.95 34.2407ZM17.0514 36.9751C17.5123 37.9097 18.0689 38.8643 18.8592 39.7056L20.3169 38.3362C19.7201 37.7009 19.2664 36.9447 18.8451 36.0905L17.0514 36.9751ZM18.8585 39.7049C19.6064 40.5026 20.5729 41.0795 21.8045 41.1449L21.9106 39.1477C21.3037 39.1155 20.7954 38.8466 20.3176 38.3369L18.8585 39.7049ZM21.8064 41.145C22.9434 41.2032 23.7315 41.68 24.3014 42.5965L25.9998 41.5405C25.0813 40.0632 23.6944 39.239 21.9087 39.1476L21.8064 41.145ZM24.3029 42.599C24.4237 42.792 24.6634 43.1277 25.1032 43.2756C25.5461 43.4246 25.9449 43.3014 26.1772 43.2088L25.4371 41.3508C25.3428 41.3883 25.5008 41.2993 25.7409 41.38C25.9778 41.4597 26.0525 41.6247 25.9983 41.538L24.3029 42.599ZM26.1728 43.2106C27.465 42.7029 28.7602 42.2128 30.0629 41.7526L29.3967 39.8668C28.0665 40.3368 26.7488 40.8355 25.4415 41.349L26.1728 43.2106ZM30.0667 41.7512C30.3121 41.6634 30.7304 41.4783 30.9591 41.0236C31.1753 40.5937 31.0932 40.164 31.0514 39.9673L29.0952 40.3837C29.1071 40.4397 29.1018 40.4354 29.102 40.3982C29.1022 40.3525 29.1107 40.2475 29.1723 40.125C29.2356 39.9991 29.3211 39.9222 29.3754 39.8843C29.4201 39.8531 29.4388 39.8517 29.3929 39.8681L30.0667 41.7512ZM31.0515 39.9679C30.666 38.1513 30.7544 36.5453 31.2758 35.1314C31.797 33.7182 32.7768 32.4267 34.2875 31.2798L33.0781 29.6868C31.3159 31.0247 30.0735 32.6116 29.3994 34.4394C28.7255 36.2666 28.6455 38.2643 29.0951 40.3831L31.0515 39.9679ZM34.2879 31.2794C35.5907 30.2893 36.2613 29.042 36.2485 27.4148L34.2486 27.4306C34.256 28.373 33.9232 29.0445 33.0777 29.6872L34.2879 31.2794ZM36.2485 27.4147C36.2396 26.2997 36.4836 25.226 36.9637 24.1911L35.1495 23.3494C34.5522 24.6368 34.2372 26.0023 34.2486 27.4307L36.2485 27.4147ZM36.9641 24.1902C37.2439 23.5855 37.5173 22.9256 37.6915 22.212L35.7485 21.7378C35.6195 22.2666 35.408 22.7907 35.149 23.3504L36.9641 24.1902ZM37.6904 22.2165C37.8591 21.5385 37.8677 20.7833 37.5116 20.0358L35.706 20.8958C35.8147 21.1241 35.8367 21.3835 35.7496 21.7333L37.6904 22.2165ZM37.5108 20.034C37.2222 19.4312 36.7173 18.7378 35.8675 18.6301C35.0162 18.5223 34.3546 19.0697 33.9251 19.5845L35.4607 20.8657C35.5983 20.7009 35.6918 20.6324 35.7313 20.6097C35.7624 20.592 35.715 20.6268 35.6161 20.6143C35.5175 20.6018 35.4808 20.5565 35.5072 20.5821C35.5405 20.6144 35.6143 20.7042 35.7068 20.8976L37.5108 20.034ZM33.929 19.5798C33.8344 19.6918 33.7536 19.8028 33.6907 19.8907C33.6213 19.9875 33.5773 20.0506 33.5273 20.1154L35.1112 21.3366C35.1892 21.2355 35.2646 21.1279 35.3164 21.0556C35.3747 20.9743 35.4168 20.9178 35.4568 20.8704L33.929 19.5798ZM33.5233 20.1206C33.0129 20.7917 32.3674 21.1606 31.4796 21.2609L31.7041 23.2483C33.1194 23.0884 34.2651 22.4491 35.1152 21.3314L33.5233 20.1206ZM31.479 21.261C30.7754 21.3409 30.0763 21.4406 29.3924 21.5388C28.704 21.6376 28.0319 21.7349 27.3597 21.8144L27.5948 23.8006C28.2964 23.7175 28.9947 23.6164 29.6767 23.5185C30.3632 23.4199 31.0345 23.3244 31.7048 23.2482L31.479 21.261ZM27.3588 21.8145C25.6469 22.0187 24.2692 22.3347 22.7811 22.2327L22.6444 24.2281C24.382 24.3471 26.1424 23.9737 27.5956 23.8005L27.3588 21.8145ZM22.7826 22.2328C21.4228 22.1376 20.7305 21.5423 20.5304 20.7956L18.5986 21.3134C19.0922 23.1555 20.7501 24.0954 22.6429 24.228L22.7826 22.2328ZM20.5301 20.7944C20.1935 19.5451 20.3596 18.307 20.9475 17.1069L19.1514 16.2271C18.3788 17.8044 18.1206 19.5391 18.5989 21.3146L20.5301 20.7944ZM20.9478 17.1063C21.3021 16.3818 22.0716 16.0396 23.0532 16.3363L23.6317 14.4217C21.8792 13.8922 20.0089 14.4738 19.1511 16.2277L20.9478 17.1063ZM23.0535 16.3363C23.6028 16.5022 24.1132 16.8019 24.6769 17.1908L25.8127 15.5446C25.198 15.1205 24.4827 14.6786 23.6315 14.4217L23.0535 16.3363ZM24.6821 17.1943C25.3839 17.6721 26.1846 18.1139 27.1188 18.3385L27.5864 16.3939C26.9785 16.2477 26.4055 15.9481 25.8076 15.5411L24.6821 17.1943ZM27.1178 18.3382C27.8416 18.5131 28.6166 18.5886 29.3483 18.3511C30.1246 18.0992 30.7029 17.5456 31.102 16.7639L29.3207 15.8545C29.1137 16.2599 28.9092 16.391 28.7309 16.4488C28.508 16.5212 28.1566 16.5316 27.5874 16.3942L27.1178 18.3382ZM31.1026 16.7626C31.3641 16.2486 31.887 15.9708 32.8192 15.8197L32.4992 13.8455C31.3841 14.0262 30.0282 14.4638 29.32 15.8558L31.1026 16.7626ZM32.8209 15.8194C33.2138 15.7551 33.4642 15.7554 33.9856 15.6919L33.7438 13.7065C33.4638 13.7406 32.8992 13.7799 32.4975 13.8458L32.8209 15.8194ZM33.983 15.6922C36.4684 15.3961 38.421 13.6472 38.8404 11.1924L36.869 10.8556C36.6082 12.3818 35.4092 13.5081 33.7464 13.7062L33.983 15.6922ZM38.8402 11.1935C39.0624 9.9019 38.8206 8.67887 38.5726 7.61593L36.6249 8.07029C36.8686 9.11493 37.0174 9.99296 36.8692 10.8545L38.8402 11.1935ZM38.5731 7.618C38.5262 7.41505 38.4399 7.21106 38.2961 7.02844C38.1511 6.84427 37.9798 6.72274 37.8194 6.64306C37.6681 6.56787 37.5268 6.53032 37.4385 6.5096C37.3932 6.49899 37.3504 6.4903 37.3222 6.48457C37.2894 6.47791 37.2731 6.47458 37.2582 6.4712L36.8148 8.42144C36.8572 8.43107 36.8989 8.43942 36.9242 8.44456C36.9541 8.45063 36.9694 8.45386 36.9816 8.45672C37.0081 8.46293 36.9785 8.45852 36.9294 8.43414C36.8714 8.40528 36.7929 8.35226 36.7248 8.26576C36.6579 8.18081 36.6326 8.10367 36.6244 8.06822L38.5731 7.618ZM37.2586 6.47129C35.2416 6.01187 33.1725 5.74134 31.0559 5.79947L31.1108 7.79871C33.0213 7.74624 34.9188 7.98959 36.8144 8.42135L37.2586 6.47129ZM31.7738 7.5225L31.7806 7.51599L30.3998 6.06917L30.3929 6.07568L31.7738 7.5225ZM38.5234 8.31043C38.5775 8.71576 38.625 9.06212 38.6722 9.40436L40.6534 9.131C40.6064 8.79022 40.5594 8.44706 40.5058 8.04579L38.5234 8.31043ZM38.6718 9.40172C39.0339 12.0784 37.6067 14.3406 35.0048 15.1821L35.6202 17.0851C39.133 15.949 41.1469 12.7796 40.6538 9.13364L38.6718 9.40172ZM35.0048 15.1821C34.3706 15.3872 33.7158 15.4356 32.8733 15.5338L33.105 17.5204C33.8249 17.4364 34.7459 17.3678 35.6202 17.0851L35.0048 15.1821ZM32.8765 15.5335C32.0682 15.6251 31.2426 15.9541 30.7271 16.885L32.4767 17.854C32.547 17.7271 32.6147 17.6705 32.6794 17.6338C32.7567 17.5899 32.8828 17.5455 33.1018 17.5207L32.8765 15.5335ZM30.7262 16.8867C30.4223 17.4378 30.0491 17.765 29.6281 17.9569C29.1929 18.1554 28.6375 18.2401 27.9371 18.1843L27.7783 20.1779C28.711 20.2522 29.6287 20.1548 30.4579 19.7767C31.3012 19.3922 31.9835 18.7485 32.4776 17.8523L30.7262 16.8867ZM27.9355 18.1841C26.7038 18.0881 25.6498 17.5161 24.4618 16.733L23.3611 18.4028C24.5907 19.2133 26.0082 20.0399 27.78 20.1781L27.9355 18.1841ZM24.4617 16.7329C24.0111 16.436 23.5639 16.1929 23.1288 16.0589C22.6885 15.9232 22.1705 15.873 21.6654 16.0938C21.1575 16.3157 20.8445 16.7319 20.6501 17.1496C20.4591 17.56 20.3445 18.0497 20.2685 18.5721L22.2477 18.8599C22.3115 18.4212 22.3905 18.1499 22.4633 17.9935C22.5327 17.8444 22.5537 17.8882 22.4663 17.9264C22.3816 17.9634 22.3706 17.9181 22.54 17.9702C22.7146 18.024 22.9801 18.1518 23.3612 18.4029L24.4617 16.7329ZM20.2684 18.5727C20.1782 19.1957 20.1349 19.7772 20.1911 20.2907C20.2484 20.8142 20.4179 21.3444 20.8211 21.7682C21.2234 22.191 21.7459 22.3898 22.2723 22.477C22.7901 22.5628 23.3872 22.5535 24.0393 22.4963L23.8643 20.5039C23.2757 20.5556 22.8727 20.5492 22.5992 20.5039C22.3342 20.46 22.274 20.3937 22.2701 20.3896C22.2672 20.3865 22.2071 20.328 22.1793 20.0732C22.1503 19.8083 22.1663 19.4218 22.2478 18.8593L20.2684 18.5727ZM24.0396 22.4962C25.1393 22.3993 26.2293 22.2486 27.2915 22.1006C28.3618 21.9515 29.4031 21.8054 30.4451 21.7087L30.2603 19.7173C29.1642 19.819 28.0759 19.9721 27.0156 20.1197C25.9473 20.2686 24.9058 20.4122 23.864 20.504L24.0396 22.4962ZM30.4443 21.7088C31.9795 21.5676 33.346 21.0529 34.307 19.5466L32.6209 18.4708C32.1004 19.2867 31.4129 19.6112 30.2611 19.7172L30.4443 21.7088ZM34.3059 19.5483C34.5495 19.1682 34.9868 18.9027 35.5824 18.8963L35.5611 16.8965C34.3385 16.9095 33.2539 17.4832 32.622 18.4691L34.3059 19.5483ZM35.582 18.8963C36.3011 18.889 37.1474 19.4791 37.4739 20.5966L39.3937 20.0358C38.8784 18.2717 37.3813 16.8778 35.5615 16.8965L35.582 18.8963ZM37.4744 20.5982C37.7417 21.5077 37.5016 22.4027 37.0052 23.4924L38.8253 24.3214C39.366 23.1343 39.8734 21.6681 39.3932 20.0342L37.4744 20.5982ZM37.0045 23.4938C36.3988 24.8292 35.9462 26.2802 36.0241 27.8939L38.0218 27.7973C37.9652 26.6268 38.2869 25.5084 38.8259 24.32L37.0045 23.4938ZM36.0241 27.8925C36.0242 27.8961 36.0246 27.915 36.0199 27.9625C36.0176 27.9856 36.0145 28.0115 36.0104 28.0444C36.0069 28.0725 36.001 28.1175 35.9964 28.1554L37.9821 28.3944C37.9918 28.3137 38.0336 28.0497 38.0219 27.7987L36.0241 27.8925ZM35.9974 28.1475C35.847 29.318 35.2932 30.219 34.2597 30.9576L35.4225 32.5848C36.874 31.5476 37.7546 30.1654 37.9811 28.4023L35.9974 28.1475ZM34.2597 30.9576C31.2407 33.1149 29.7808 36.9536 30.8946 40.2157L32.7874 39.5695C32.0022 37.2698 33.007 34.3109 35.4225 32.5848L34.2597 30.9576ZM32.1626 40.8395C34.1689 40.1581 37.9971 38.2052 41.5334 36.2033C43.3159 35.1943 45.0506 34.1578 46.4781 33.2396C47.879 32.3385 49.059 31.5043 49.6716 30.906L48.2741 29.4752C47.8261 29.9128 46.8108 30.6475 45.3961 31.5575C44.0081 32.4503 42.3071 33.4671 40.5482 34.4628C37.0017 36.4704 33.3247 38.3326 31.5194 38.9457L32.1626 40.8395ZM49.4891 29.3341C48.686 28.8501 47.8627 28.3433 47.0437 27.8595L46.0265 29.5815C46.8371 30.0603 47.6301 30.5489 48.4566 31.0471L49.4891 29.3341ZM47.0422 27.8586C46.7943 27.7127 46.6642 27.5684 46.5899 27.4362C46.5155 27.3037 46.4609 27.119 46.4643 26.8363L44.4644 26.8123C44.4577 27.3752 44.5681 27.9206 44.8463 28.4159C45.1247 28.9114 45.5351 29.2924 46.028 29.5824L47.0422 27.8586ZM46.4643 26.8361C46.4786 25.6228 46.8487 24.5356 47.5669 23.533L45.941 22.3684C44.9958 23.688 44.4838 25.1702 44.4644 26.8125L46.4643 26.8361ZM47.5675 23.5322C48.8174 21.7836 49.6857 19.8349 49.8652 17.6126L47.8717 17.4516C47.728 19.2299 47.034 20.8392 45.9404 22.3692L47.5675 23.5322ZM49.8654 17.6105C49.9076 17.0738 49.9292 16.5408 49.9482 16.0256C49.9674 15.5045 49.9837 15.0057 50.0147 14.5077L48.0186 14.3835C47.9856 14.9132 47.9683 15.4437 47.9496 15.952C47.9306 16.4662 47.9102 16.9626 47.8716 17.4537L49.8654 17.6105ZM50.0146 14.5101C50.0344 14.2033 49.9984 13.8877 49.8647 13.5766C49.7337 13.272 49.537 13.037 49.3342 12.8483L47.9719 14.3125C48.0417 14.3775 48.0386 14.393 48.0272 14.3664C48.0219 14.3541 48.0196 14.3436 48.0191 14.3398C48.0187 14.3375 48.0208 14.3493 48.0187 14.3811L50.0146 14.5101ZM49.3306 12.8449C47.5882 11.2397 45.6598 9.88744 43.5404 8.78956L42.6205 10.5654C44.582 11.5816 46.3641 12.8313 47.9755 14.3159L49.3306 12.8449ZM43.5413 8.78999C42.3898 8.19214 41.1808 7.63867 39.8029 7.22383L39.2263 9.13891C40.4411 9.50464 41.5285 9.99846 42.6197 10.565L43.5413 8.78999ZM40.5146 8.18137V8.17811H38.5146V8.18137H40.5146ZM10.617 47.7188C12.5034 49.9163 14.6069 51.663 16.9594 53.1241L18.0146 51.4251C15.8216 50.063 13.8777 48.4467 12.1345 46.416L10.617 47.7188ZM16.9583 53.1234C17.2721 53.3189 17.8012 53.5238 18.355 53.2177C18.5611 53.1037 18.695 52.9535 18.7605 52.8756C18.7963 52.833 18.828 52.7916 18.8488 52.7645C18.8735 52.7322 18.8858 52.7157 18.9005 52.6971L17.3328 51.4552C17.3038 51.4919 17.2749 51.5302 17.2595 51.5503C17.2401 51.5756 17.2329 51.5846 17.2297 51.5885C17.217 51.6035 17.2719 51.5312 17.3876 51.4672C17.5339 51.3864 17.7041 51.3572 17.8588 51.3801C17.9829 51.3984 18.0422 51.4423 18.0156 51.4258L16.9583 53.1234ZM18.8981 52.7002C19.4188 52.048 19.9331 51.7315 20.4285 51.6204C20.9264 51.5088 21.5398 51.5745 22.3126 51.9396L23.1668 50.1312C22.108 49.631 21.0344 49.4349 19.991 49.6689C18.9451 49.9034 18.0637 50.5399 17.3352 51.4522L18.8981 52.7002ZM22.313 51.9398C23.4958 52.4978 24.6441 53.0187 25.7713 53.592L26.6779 51.8092C25.5155 51.2181 24.3135 50.6722 23.1664 50.131L22.313 51.9398ZM25.7707 53.5917C26.9444 54.1895 28.1274 54.1291 29.2185 53.4781L28.1938 51.7605C27.6823 52.0657 27.2288 52.0899 26.6785 51.8095L25.7707 53.5917ZM29.2168 53.4791C29.7935 53.1366 30.343 52.7537 30.8541 52.4034L29.7233 50.7538C29.1908 51.1188 28.7033 51.458 28.1956 51.7595L29.2168 53.4791ZM30.8521 52.4048C32.0884 51.5618 33.1506 51.0403 34.3351 51.2148L34.6266 49.2362C32.6326 48.9424 31.0077 49.878 29.7254 50.7524L30.8521 52.4048ZM34.3343 51.2147C36.4698 51.531 38.0512 52.6241 39.0762 54.4572L40.8219 53.481C39.4899 51.0989 37.3674 49.6422 34.6274 49.2363L34.3343 51.2147ZM39.0783 54.4609C39.1898 54.6583 39.4316 55.0606 39.9134 55.2282C40.3989 55.3971 40.8361 55.2254 41.0243 55.1485L40.2678 53.2971C40.2081 53.3215 40.2133 53.314 40.2553 53.3071C40.309 53.2983 40.4275 53.2895 40.5705 53.3393C40.7125 53.3887 40.7976 53.4676 40.8309 53.5038C40.8571 53.5324 40.8535 53.537 40.8198 53.4773L39.0783 54.4609ZM41.0186 55.1508C44.594 53.7154 47.7296 51.6482 50.3935 48.9095L48.9598 47.515C46.4988 50.0452 43.6005 51.959 40.2735 53.2948L41.0186 55.1508ZM50.3949 48.908C50.5014 48.7981 50.8287 48.4736 50.8782 47.9843C50.9323 47.4483 50.6348 47.0588 50.4805 46.8745L48.9468 48.1581C48.9838 48.2024 48.9676 48.1918 48.9432 48.1392C48.9127 48.0734 48.8718 47.9466 48.8883 47.7833C48.9041 47.6272 48.9638 47.5246 48.9862 47.4906C49.0037 47.4639 49.0072 47.4662 48.9583 47.5166L50.3949 48.908ZM50.481 46.8751C49.8832 46.1596 49.6785 45.512 49.7092 44.9496C49.74 44.3833 50.0181 43.7453 50.691 43.0706L49.275 41.6582C48.3519 42.5837 47.7764 43.6613 47.7121 44.8408C47.6476 46.0241 48.1064 47.1524 48.9463 48.1575L50.481 46.8751ZM50.6898 43.0718C50.9828 42.7791 51.2974 42.4652 51.5968 42.1342L50.1133 40.7928C49.8539 41.0798 49.5758 41.3577 49.2762 41.657L50.6898 43.0718ZM51.5933 42.1381C51.5981 42.1328 51.6031 42.1276 51.6213 42.1083C51.6361 42.0927 51.6594 42.068 51.6843 42.0402C51.7302 41.9886 51.8119 41.8929 51.8835 41.7658C51.9563 41.6364 52.0452 41.4281 52.044 41.1623C52.0427 40.8778 51.939 40.6281 51.7876 40.4345L50.212 41.6663C50.1229 41.5524 50.0449 41.3803 50.044 41.171C50.0432 40.9803 50.107 40.8446 50.1407 40.7847C50.1731 40.7271 50.2015 40.6979 50.1914 40.7093C50.1882 40.7128 50.1828 40.7187 50.1695 40.7327C50.1597 40.7431 50.1373 40.7665 50.1168 40.7889L51.5933 42.1381ZM51.804 40.456C51.3425 39.8316 50.6086 39.8845 50.2908 39.9611L50.7595 41.9054C50.7331 41.9118 50.6746 41.9221 50.587 41.9039C50.4935 41.8845 50.3256 41.8206 50.1956 41.6448L51.804 40.456ZM50.286 39.9623C50.1449 39.9971 50.0175 40.0404 49.9231 40.0734C49.816 40.1108 49.7573 40.1324 49.692 40.1523L50.2741 42.0657C50.3906 42.0303 50.5103 41.9868 50.5825 41.9616C50.6674 41.932 50.7202 41.9151 50.7642 41.9043L50.286 39.9623ZM49.6846 40.1546C49.0492 40.3532 48.4271 40.3674 47.8068 40.1899L47.2567 42.1127C48.2728 42.4034 49.2939 42.3722 50.2814 42.0634L49.6846 40.1546ZM47.8063 40.1897C46.4374 39.7989 45.7133 38.6222 45.8666 37.6362L43.8903 37.3288C43.552 39.5042 45.1176 41.5019 47.2572 42.1129L47.8063 40.1897ZM45.8662 37.6384C45.9805 36.9148 46.2921 36.395 46.7124 36.0535C47.1361 35.7092 47.743 35.4876 48.5439 35.4967L48.5668 33.4969C47.3778 33.4832 46.2944 33.8161 45.4512 34.5013C44.6046 35.1891 44.0727 36.1736 43.8907 37.3266L45.8662 37.6384ZM48.5554 35.4968C48.8041 35.4968 49.0363 35.503 49.3105 35.5064L49.3355 33.5066C49.0981 33.5036 48.8184 33.4968 48.5554 33.4968V35.4968ZM49.3087 35.5064C49.8558 35.5142 50.359 35.3585 50.7679 35.0232C51.1608 34.7009 51.389 34.2765 51.5238 33.8748L49.6275 33.2388C49.5703 33.4096 49.514 33.4649 49.4995 33.4768C49.4933 33.4819 49.4859 33.4869 49.4701 33.492C49.4527 33.4977 49.412 33.5077 49.3374 33.5066L49.3087 35.5064ZM51.5233 33.8761C51.7884 33.0893 51.7562 32.2934 51.5181 31.5482L49.613 32.157C49.7386 32.55 49.7399 32.9055 49.628 33.2375L51.5233 33.8761ZM51.5183 31.549C51.4832 31.4386 51.4286 31.2856 51.3418 31.1354C51.2576 30.9897 51.0929 30.7587 50.7969 30.6137C50.1031 30.2741 49.5125 30.7219 49.3123 30.8919L50.6066 32.4165C50.651 32.3789 50.616 32.4204 50.5125 32.4555C50.3808 32.5002 50.1544 32.526 49.9175 32.41C49.7144 32.3106 49.627 32.1653 49.6102 32.1363C49.5909 32.1028 49.594 32.0974 49.6127 32.1561L51.5183 31.549ZM49.3177 30.8873C49.0069 31.1473 48.6737 31.3679 48.2642 31.6549L49.4122 33.2927C49.7636 33.0463 50.2048 32.7528 50.6012 32.4211L49.3177 30.8873ZM48.2678 31.6525C43.3501 35.068 38.1182 37.9666 32.5908 40.3674L33.3875 42.2018C39.0323 39.75 44.3798 36.7878 49.4087 33.2951L48.2678 31.6525ZM32.5925 40.3666C32.4768 40.4166 32.3226 40.4873 32.1779 40.5837C32.0338 40.6796 31.8203 40.852 31.6861 41.139C31.3849 41.7829 31.7376 42.3573 31.8898 42.5838L33.5499 41.4686C33.5051 41.4018 33.5274 41.4178 33.548 41.4935C33.5753 41.5942 33.5931 41.7824 33.4977 41.9864C33.4148 42.1636 33.2964 42.2417 33.2864 42.2484C33.2757 42.2555 33.2944 42.242 33.3858 42.2026L32.5925 40.3666ZM31.8892 42.583C32.2752 43.1589 32.5985 43.7409 32.822 44.3466L34.6984 43.6542C34.4034 42.8547 33.9928 42.1293 33.5505 41.4694L31.8892 42.583ZM32.821 44.3439C33.1269 45.1801 33.0535 45.8775 32.7714 46.3963C32.4876 46.9184 31.9241 47.3843 31.0136 47.6176L31.51 49.555C32.859 49.2094 33.9336 48.4459 34.5285 47.3516C35.1253 46.2539 35.1715 44.9478 34.6994 43.6569L32.821 44.3439ZM31.014 47.6175C29.8411 47.9175 28.79 47.6993 27.7879 46.992L26.6346 48.626C28.0838 49.6489 29.733 50.0096 31.5097 49.5551L31.014 47.6175ZM27.7878 46.9919C26.907 46.3704 26.2417 45.536 25.7012 44.5482L23.9467 45.5082C24.5914 46.6864 25.4415 47.784 26.6347 48.6261L27.7878 46.9919ZM25.7002 44.5463C25.5694 44.3084 25.3259 43.9093 24.8583 43.708C24.3697 43.4976 23.8969 43.6091 23.5795 43.7183L24.2299 45.6095C24.3062 45.5833 24.3198 45.5867 24.2924 45.5885C24.2545 45.5912 24.1688 45.5886 24.0674 45.545C23.9688 45.5025 23.9145 45.4466 23.9002 45.4302C23.8913 45.4201 23.9067 45.4355 23.9477 45.5101L25.7002 44.5463ZM23.5776 43.7189C22.6812 44.0292 21.7552 44.2655 20.7748 44.527L21.2903 46.4594C22.236 46.2071 23.2494 45.949 24.2318 45.6089L23.5776 43.7189ZM20.7772 44.5264C17.7007 45.3389 14.5921 45.9006 11.3186 46.0655L11.4192 48.0629C14.86 47.8896 18.1084 47.2999 21.2879 46.46L20.7772 44.5264ZM10.9437 47.9693L10.9505 47.9725L11.8009 46.1623L11.7941 46.1591L10.9437 47.9693ZM51.865 47.1729C54.1262 44.8914 55.8899 40.9192 56.8459 37.0107C57.3286 35.0374 57.6174 33.0334 57.6538 31.2039C57.6898 29.3896 57.4792 27.6734 56.9031 26.3216L55.0632 27.1058C55.4838 28.0925 55.6874 29.4909 55.6542 31.1642C55.6212 32.8222 55.3574 34.6786 54.9032 36.5355C53.9855 40.2872 52.3383 43.8542 50.4445 45.7651L51.865 47.1729ZM55.3032 25.9805C54.046 27.1464 52.7875 28.2625 51.4521 29.2773L52.6622 30.8697C54.0744 29.7965 55.3883 28.6292 56.6632 27.4469L55.3032 25.9805ZM51.455 29.2751C51.2829 29.4049 50.9541 29.6826 50.8657 30.1581C50.7784 30.627 50.979 31.0034 51.0881 31.1856L52.804 30.1582C52.7515 30.0705 52.8847 30.2404 52.8319 30.5239C52.778 30.814 52.5855 30.9275 52.6593 30.8719L51.455 29.2751ZM51.0868 31.1835C51.513 31.8992 51.5774 32.7106 51.387 33.6471L53.3469 34.0455C53.6008 32.7964 53.5644 31.4352 52.8053 30.1603L51.0868 31.1835ZM51.3872 33.6458C51.2062 34.5305 50.4451 35.1833 49.3788 35.228L49.4626 37.2262C51.3458 37.1473 52.962 35.9267 53.3466 34.0467L51.3872 33.6458ZM49.3772 35.228C49.1841 35.2365 48.9956 35.2329 48.7518 35.232C48.5232 35.2311 48.255 35.233 47.978 35.2616L48.1832 37.251C48.3473 37.2341 48.5252 37.2311 48.7444 37.2319C48.9484 37.2327 49.2094 37.2372 49.4642 37.2262L49.3772 35.228ZM47.9816 35.2612C47.4575 35.3133 46.9835 35.5005 46.5941 35.831C46.2119 36.1556 45.9649 36.5724 45.8096 37.0043L47.6915 37.6811C47.7585 37.495 47.8331 37.4028 47.8885 37.3557C47.9369 37.3146 48.0168 37.2676 48.1795 37.2514L47.9816 35.2612ZM45.8084 37.0075C45.6487 37.4563 45.5854 37.9447 45.6957 38.4407C45.807 38.9411 46.0767 39.3666 46.4463 39.7138L47.8158 38.2563C47.6904 38.1385 47.6588 38.055 47.648 38.0066C47.6363 37.9537 47.6302 37.8535 47.6927 37.6779L45.8084 37.0075ZM46.4479 39.7154C46.9577 40.1922 47.543 40.4815 48.1851 40.5748C48.8136 40.6662 49.4308 40.5606 50.0062 40.3574L49.3403 38.4716C48.9763 38.6001 48.6945 38.6279 48.4728 38.5956C48.2646 38.5654 48.0486 38.4741 47.8141 38.2548L46.4479 39.7154ZM50.0055 40.3577C50.8405 40.0635 51.5311 40.3592 51.7645 40.7085L53.4273 39.5971C52.5563 38.294 50.7956 37.9589 49.341 38.4713L50.0055 40.3577ZM51.7654 40.7098C51.9019 40.9133 52.0059 41.3743 51.3201 42.1074L52.7807 43.4736C53.7987 42.3853 54.2933 40.8883 53.4264 39.5958L51.7654 40.7098ZM51.3184 42.1092C51.1901 42.2471 51.0519 42.3801 50.8876 42.5392C50.7307 42.6912 50.5502 42.8667 50.378 43.058L51.8641 44.3964C51.9848 44.2624 52.1192 44.1306 52.2789 43.976C52.431 43.8286 52.6111 43.6559 52.7825 43.4718L51.3184 42.1092ZM50.3772 43.0588C49.8614 43.6328 49.4892 44.3113 49.5004 45.1032C49.5114 45.886 49.8945 46.561 50.4062 47.1386L51.9033 45.8124C51.5563 45.4208 51.5018 45.19 51.5002 45.0751C51.4987 44.9694 51.5389 44.7583 51.8648 44.3956L50.3772 43.0588ZM52.1547 46.4755V46.469H50.1547V46.4755H52.1547ZM8.02117 44.0997C8.33517 44.5912 8.56474 44.8925 8.76227 45.277L10.5412 44.363C10.2875 43.8693 9.9245 43.364 9.7065 43.0229L8.02117 44.0997ZM8.76369 45.2797C8.972 45.6821 9.27538 46.0051 9.69671 46.1975C10.0843 46.3746 10.4819 46.3982 10.7985 46.3922L10.7609 44.3926C10.6642 44.3944 10.6016 44.3901 10.5615 44.3842C10.5234 44.3787 10.5169 44.3734 10.5277 44.3783C10.5416 44.3847 10.5568 44.3954 10.5663 44.4049C10.5737 44.4123 10.5624 44.4039 10.5398 44.3603L8.76369 45.2797ZM10.7993 46.3922C12.8585 46.3519 14.8737 46.0963 16.8609 45.7356L16.5037 43.7678C14.5849 44.1161 12.6809 44.3549 10.7601 44.3926L10.7993 46.3922ZM16.8611 45.7356C19.1317 45.3229 21.343 44.7259 23.5119 44.0918L22.9507 42.1722C20.8029 42.8001 18.6706 43.3739 16.5035 43.7678L16.8611 45.7356ZM23.5081 44.0929C23.6314 44.0574 23.8003 44.0017 23.9616 43.9069C24.1208 43.8133 24.3938 43.6097 24.5094 43.2305C24.6271 42.8445 24.5088 42.5181 24.42 42.3444C24.3325 42.1731 24.2159 42.0341 24.1303 41.9398L22.6489 43.2834C22.6946 43.3338 22.6718 43.3185 22.6392 43.2546C22.6053 43.1883 22.503 42.9532 22.5963 42.6473C22.6875 42.3482 22.8956 42.2135 22.9482 42.1826C23.0028 42.1505 23.0231 42.1513 22.9544 42.1711L23.5081 44.0929ZM24.1331 41.9429C23.5608 41.3065 22.8352 40.9459 21.9674 40.8855L21.8285 42.8807C22.1729 42.9047 22.4169 43.0255 22.646 43.2803L24.1331 41.9429ZM21.9665 40.8854C20.8192 40.8066 19.885 40.3943 19.1173 39.6028L17.6817 40.9954C18.8196 42.1685 20.2291 42.7708 21.8294 42.8807L21.9665 40.8854ZM19.1189 39.6045C18.3713 38.8302 17.7934 37.9322 17.304 36.9347L15.5085 37.8157C16.0627 38.9452 16.7508 40.0312 17.6801 40.9937L19.1189 39.6045ZM17.3044 36.9355C16.7567 35.8168 16.0245 34.7913 15.0254 33.9451L13.7328 35.4713C14.4848 36.1082 15.059 36.8976 15.5081 37.8149L17.3044 36.9355ZM15.0269 33.9464C14.4773 33.479 13.7678 33.2326 13.1147 33.1633C12.4778 33.0957 11.7214 33.18 11.1271 33.5872L12.2574 35.2372C12.323 35.1923 12.5447 35.114 12.9036 35.1521C13.2463 35.1885 13.5504 35.3161 13.7313 35.47L15.0269 33.9464ZM11.1265 33.5876C10.6099 33.9421 10.2732 34.4527 10.1929 35.1053C10.1212 35.689 10.2657 36.3033 10.4875 36.907L12.3648 36.2172C12.1826 35.7215 12.1639 35.4642 12.178 35.3494C12.1809 35.3255 12.1849 35.3119 12.187 35.3056C12.189 35.2997 12.1906 35.2971 12.1916 35.2955C12.1921 35.2947 12.2046 35.2734 12.258 35.2368L11.1265 33.5876ZM10.4896 36.9125C10.5306 37.0221 10.601 37.1967 10.6277 37.2661L12.4941 36.5475C12.4332 36.3893 12.4094 36.3363 12.3628 36.2117L10.4896 36.9125ZM10.6316 37.2761C10.9623 38.1082 11.2529 38.6709 11.4273 39.3507L13.3646 38.8536C13.1484 38.0113 12.7386 37.1626 12.4902 36.5375L10.6316 37.2761ZM11.4277 39.3523C11.6085 40.0519 11.5404 40.6306 11.3232 41.0761C11.1073 41.519 10.7022 41.9165 10.0501 42.184L10.809 44.0344C11.8539 43.6059 12.6626 42.8927 13.121 41.9525C13.5781 41.0149 13.6447 39.9381 13.3642 38.8521L11.4277 39.3523ZM10.0508 42.1837C9.63128 42.3554 9.26141 42.4127 8.59347 42.6028L9.14094 44.5264C9.57067 44.4041 10.2581 44.2598 10.8082 44.0347L10.0508 42.1837ZM9.56767 42.8509L9.5643 42.8476L8.16338 44.275L8.16674 44.2783L9.56767 42.8509ZM49.8297 15.5746C49.8244 15.5939 49.8194 15.6112 49.8138 15.6297C49.8102 15.6418 49.7996 15.6763 49.7925 15.7007C49.7786 15.7489 49.7373 15.8895 49.7373 16.0653H51.7373C51.7373 16.1297 51.7297 16.1816 51.7233 16.2151C51.7202 16.2311 51.7173 16.243 51.7157 16.2492C51.7142 16.2553 51.7133 16.2581 51.714 16.2558C51.7147 16.2533 51.716 16.249 51.7187 16.2398C51.7201 16.2353 51.7214 16.2309 51.7232 16.225C51.7249 16.2194 51.7269 16.2131 51.7289 16.2063C51.7372 16.1786 51.7477 16.1431 51.7593 16.1006L49.8297 15.5746ZM49.7373 16.0653C49.7373 18.8041 48.9422 21.2726 47.2923 23.5122L48.9025 24.6984C50.8083 22.1114 51.7373 19.2263 51.7373 16.0653H49.7373ZM47.2919 23.5127C46.5944 24.461 46.2671 25.5595 46.2391 26.6923L48.2385 26.7417C48.2576 25.9685 48.476 25.2782 48.9029 24.6979L47.2919 23.5127ZM46.2391 26.6941C46.2332 26.9508 46.2692 27.2643 46.4398 27.5736C46.6118 27.8855 46.8652 28.0928 47.1182 28.2354L48.1001 26.493C48.0703 26.4762 48.1352 26.5063 48.191 26.6076C48.2455 26.7063 48.2377 26.7759 48.2385 26.7399L46.2391 26.6941ZM47.114 28.233C47.9836 28.7286 48.838 29.2354 49.6649 29.7712L50.7523 28.0926C49.8823 27.5289 48.9925 27.0016 48.1043 26.4954L47.114 28.233ZM49.6606 29.7684C49.9574 29.9628 50.3534 30.1054 50.806 29.9948C51.1614 29.9079 51.4224 29.6797 51.4947 29.6211L50.2357 28.0671C50.182 28.1106 50.1718 28.117 50.1749 28.115C50.1825 28.1101 50.2382 28.0747 50.331 28.052C50.4346 28.0266 50.5417 28.0275 50.636 28.0499C50.7197 28.0697 50.7622 28.0991 50.7566 28.0954L49.6606 29.7684ZM51.4882 29.6263C53.0239 28.4032 54.5088 27.1213 55.9278 25.7605L54.5435 24.3169C53.1746 25.6297 51.7368 26.8716 50.2422 28.0619L51.4882 29.6263ZM55.9303 25.758C56.1629 25.5335 56.3821 25.2378 56.4683 24.8457C56.5529 24.4606 56.4791 24.117 56.3927 23.8592L54.4963 24.4944C54.5243 24.5781 54.4909 24.5256 54.5149 24.4162C54.5266 24.3632 54.5459 24.3243 54.559 24.3034C54.5699 24.2859 54.5701 24.2912 54.541 24.3194L55.9303 25.758ZM56.3914 23.8554C55.9863 22.6618 55.5248 21.4558 54.9367 20.289L53.1507 21.189C53.6805 22.2404 54.1079 23.3502 54.4976 24.4982L56.3914 23.8554ZM54.9367 20.2889C54.0305 18.491 52.9461 16.7868 51.5536 15.1795L50.042 16.4891C51.3095 17.9522 52.3061 19.5134 53.1507 21.1891L54.9367 20.2889ZM50.0919 15.126L50.0886 15.1293L51.5004 16.5459L51.5037 16.5426L50.0919 15.126ZM31.5288 57.0213C33.4821 57.0524 35.887 56.6913 38.2153 56.074L37.7028 54.1408C35.4923 54.7269 33.2774 55.0488 31.5607 55.0215L31.5288 57.0213ZM38.2083 56.0758C38.2072 56.0761 38.2095 56.0755 38.2168 56.0739C38.2243 56.0723 38.234 56.0704 38.2488 56.0675C38.2716 56.0631 38.3251 56.053 38.3745 56.042C38.4539 56.0243 38.683 55.9737 38.9007 55.8216C39.1849 55.6231 39.3927 55.2943 39.4033 54.8857C39.4117 54.5634 39.2929 54.2911 39.199 54.1145L37.4329 55.0531C37.467 55.1172 37.3991 55.0226 37.404 54.8335C37.4069 54.7227 37.4349 54.5886 37.5095 54.4553C37.5829 54.3243 37.6776 54.2363 37.7556 54.1819C37.8837 54.0924 37.9914 54.0783 37.9402 54.0897C37.9243 54.0933 37.9103 54.0958 37.866 54.1045C37.8308 54.1113 37.7724 54.1228 37.7098 54.139L38.2083 56.0758ZM39.2005 54.1174C37.537 50.9624 33.5935 50.0575 30.7022 52.1884L31.8888 53.7984C33.799 52.3905 36.3408 52.9818 37.4314 55.0502L39.2005 54.1174ZM30.7012 52.1891C30.1717 52.5804 29.6289 52.9366 29.0627 53.2509L30.0334 54.9995C30.6861 54.6372 31.3015 54.2324 31.8898 53.7977L30.7012 52.1891ZM29.0646 53.2498C27.9685 53.8552 26.9316 53.8794 25.8048 53.3081L24.9004 55.0919C26.6221 55.9648 28.3597 55.9238 30.0315 55.0006L29.0646 53.2498ZM25.8053 53.3083C24.6015 52.6972 23.3738 52.1323 22.176 51.5733L21.3302 53.3857C22.5433 53.9519 23.7333 54.4994 24.8999 55.0917L25.8053 53.3083ZM22.1755 51.5731C21.6603 51.3329 21.1088 51.212 20.5323 51.3149C19.9632 51.4165 19.4938 51.7144 19.0981 52.0799L20.4552 53.5491C20.6756 53.3454 20.8106 53.2969 20.8838 53.2838C20.9496 53.2721 21.0782 53.2682 21.3306 53.3859L22.1755 51.5731ZM19.0984 52.0796C18.9839 52.1853 18.8399 52.3297 18.7265 52.506C18.6108 52.686 18.4639 52.9992 18.5264 53.3929C18.5887 53.7852 18.8242 54.0386 18.9921 54.1765C19.1577 54.3127 19.3456 54.41 19.502 54.4816L20.3342 52.663C20.2347 52.6175 20.2298 52.605 20.262 52.6315C20.2965 52.6598 20.4579 52.8037 20.5017 53.0793C20.5456 53.3563 20.4358 53.5456 20.4089 53.5876C20.3843 53.6258 20.3808 53.6177 20.4548 53.5494L19.0984 52.0796ZM19.5017 54.4815C23.1516 56.1531 26.9879 57.0214 31.5447 57.0214V55.0214C27.2662 55.0214 23.7149 54.2113 20.3345 52.6631L19.5017 54.4815ZM30.5085 48.0381C31.4812 48.0241 32.3795 47.5857 32.8734 46.7494C33.3661 45.9149 33.3417 44.8821 32.8927 43.8953L31.0722 44.7235C31.3202 45.2686 31.2351 45.5904 31.1512 45.7324C31.0684 45.8726 30.8741 46.0326 30.4798 46.0383L30.5085 48.0381ZM32.8936 43.8973C32.7332 43.5427 32.5484 43.2102 32.375 42.9079C32.1945 42.5932 32.0354 42.3264 31.8855 42.0445L30.1196 42.9835C30.2896 43.3033 30.4807 43.6252 30.6403 43.9032C30.807 44.1938 30.9522 44.4581 31.0713 44.7215L32.8936 43.8973ZM31.8822 42.0384C31.8008 41.8878 31.597 41.5366 31.1667 41.3726C30.7325 41.2072 30.3398 41.3335 30.1436 41.4102L30.8716 43.273C30.9415 43.2457 30.7373 43.3492 30.4547 43.2416C30.1758 43.1353 30.0865 42.9223 30.1229 42.9896L31.8822 42.0384ZM30.1431 41.4104C28.8569 41.9138 27.556 42.3985 26.2529 42.8676L26.9304 44.7494C28.2471 44.2753 29.5656 43.7842 30.8721 43.2728L30.1431 41.4104ZM26.2533 42.8675C26.165 42.8992 26.0314 42.9505 25.9003 43.0294C25.769 43.1084 25.5539 43.2659 25.42 43.5496C25.2759 43.8551 25.2978 44.1502 25.3535 44.358C25.4038 44.5456 25.4906 44.6998 25.5536 44.8012L27.2526 43.746C27.2297 43.7092 27.2609 43.7492 27.2852 43.8398C27.315 43.9508 27.3405 44.1664 27.2288 44.4032C27.1273 44.6182 26.9735 44.7178 26.9315 44.743C26.8898 44.7681 26.8736 44.7698 26.93 44.7495L26.2533 42.8675ZM25.5547 44.8029C26.0404 45.5815 26.6219 46.3939 27.4431 47.0602L28.7032 45.507C28.1373 45.0479 27.6951 44.4553 27.2515 43.7443L25.5547 44.8029ZM27.4458 47.0623C28.2265 47.6913 29.1232 48.0453 30.497 48.0414L30.4913 46.0414C29.5417 46.0441 29.0984 45.8255 28.7006 45.5049L27.4458 47.0623ZM31.4942 47.0414V47.0382H29.4942V47.0414H31.4942ZM8.65566 44.6669C6.98849 42.0246 5.90817 39.2779 5.2304 36.2311L3.27812 36.6653C4.00108 39.9153 5.16326 42.8798 6.9642 45.7341L8.65566 44.6669ZM3.36849 35.9841C2.63837 37.3775 2.14181 38.7104 1.89805 40.1409L3.86964 40.4769C4.07034 39.299 4.4829 38.1665 5.14004 36.9123L3.36849 35.9841ZM1.89783 40.1422C1.75852 40.9664 1.75915 41.8116 2.02526 42.6204C2.29601 43.4434 2.81846 44.1576 3.60397 44.7413L4.7968 43.1359C4.3129 42.7764 4.05588 42.3929 3.92509 41.9954C3.78968 41.5838 3.76674 41.0857 3.86986 40.4756L1.89783 40.1422ZM3.60421 44.7415C4.85023 45.6667 6.27514 45.9468 7.63735 46.1855L7.98251 44.2155C6.59715 43.9728 5.61795 43.7457 4.79656 43.1357L3.60421 44.7415Z" fill="black" mask="url(#path-2-inside-1_6296_84379)"/>
<path d="M57.4087 23.4878L57.4196 23.4764L57.4298 23.4643C59.1891 21.3732 60.9801 19.1814 61.6096 16.3357L61.6096 16.3357C61.8655 15.1787 61.7844 14.1394 61.3067 13.2548C60.8308 12.3735 59.9983 11.7148 58.8854 11.2432L58.8851 11.2431C57.5651 10.6848 56.1815 10.4846 54.7597 10.363L53.8843 10.2882L54.2671 11.0791C54.4168 11.3884 54.6121 11.6348 54.7913 11.8412C54.8574 11.9172 54.9175 11.984 54.9734 12.0461C55.0816 12.1663 55.1742 12.2692 55.2644 12.3887L55.2649 12.3893C55.3454 12.4956 55.4341 12.5997 55.5116 12.6905C55.5286 12.7105 55.5451 12.7298 55.5608 12.7484C55.6535 12.8579 55.729 12.951 55.7901 13.0438C55.8684 13.1648 55.867 13.236 55.8607 13.2697C55.8535 13.3073 55.8239 13.3811 55.7031 13.4751L55.7008 13.477C55.5808 13.5714 55.4867 13.5916 55.4304 13.5895C55.3821 13.5878 55.3153 13.5688 55.2361 13.4795L55.2355 13.4788C54.2519 12.3729 53.2884 11.258 52.3698 10.1125L52.3695 10.1121C52.2934 10.0174 52.2949 9.95556 52.3049 9.9136C52.3187 9.85551 52.3727 9.75411 52.525 9.64596L52.5261 9.64519C53.6741 8.82574 54.8197 8.01123 55.978 7.21016L55.9792 7.20933C56.1381 7.09878 56.2693 7.07657 56.3583 7.08596C56.4438 7.09498 56.529 7.13643 56.6034 7.23124C56.6702 7.31677 56.6828 7.39535 56.6695 7.46571C56.6552 7.54189 56.6004 7.65383 56.4517 7.76683L56.4501 7.76811C56.1788 7.97606 55.9055 8.1709 55.5921 8.39432C55.4229 8.51496 55.242 8.64393 55.0434 8.78779L53.9763 9.56084L55.2876 9.69028C56.6473 9.8245 57.8004 10.0425 58.8873 10.4625L58.8874 10.4625C60.8528 11.2213 62.1749 12.4053 62.4755 14.4027L62.4756 14.4031C62.6711 15.6959 62.349 16.9514 61.8092 18.2246C60.8356 20.5207 59.3152 22.4931 57.5739 24.3621L55.6339 26.3556C54.3755 27.5223 53.1063 28.648 51.7552 29.6748C51.755 29.6749 51.7548 29.6751 51.7546 29.6752L49.6586 31.2547L49.6484 31.2624L49.6386 31.2706C49.3703 31.4951 49.0836 31.6941 48.7752 31.9082C48.7022 31.9589 48.628 32.0104 48.5525 32.0633C43.6078 35.4975 38.3478 38.4116 32.792 40.8249C32.7913 40.8252 32.7906 40.8255 32.7899 40.8258L30.3184 41.8785C29.0323 42.3818 27.7323 42.8662 26.4311 43.3347L23.753 44.1873L23.753 44.1871L23.7411 44.1912C22.9308 44.4717 22.0972 44.693 21.2445 44.9193C21.1312 44.9494 21.0176 44.9795 20.9037 45.0099C17.804 45.8286 14.6629 46.3969 11.3506 46.5643C10.9202 46.574 10.2774 46.5685 9.67674 46.5496C9.05971 46.5302 8.532 46.4977 8.31517 46.4606L8.28685 46.4557L8.25817 46.4542C7.18089 46.3952 6.11817 46.1715 5.11821 45.7846L5.11799 45.7845C3.65085 45.2177 2.64355 44.4184 2.0814 43.4148C1.52144 42.4151 1.36457 41.1437 1.73124 39.5528C2.09901 37.965 2.7421 36.4819 3.57895 35.0673L3.73893 36.3555C3.06715 37.6627 2.61595 38.9043 2.39095 40.2247L2.39084 40.2254C2.26057 40.9961 2.26678 41.7544 2.50022 42.464C2.73597 43.1806 3.19207 43.8121 3.90218 44.3398L3.90229 44.3399C5.04216 45.1863 6.35564 45.4531 7.72364 45.6928L7.73654 45.6951L7.74955 45.6967C8.15148 45.7456 8.78345 45.8139 9.37666 45.8603C9.67299 45.8834 9.96415 45.9015 10.2142 45.9086C10.4339 45.9148 10.6545 45.914 10.8214 45.8915C12.835 45.8498 14.8119 45.5992 16.7716 45.2435L16.7717 45.2435C19.0165 44.8355 21.208 44.2443 23.3716 43.6117L23.38 43.6093L23.3883 43.6065L25.9642 42.7543L25.9772 42.75L25.99 42.745C27.2859 42.2359 28.5868 41.7436 29.8964 41.281L29.9129 41.2751L29.929 41.2681L32.0215 40.3591C33.9832 39.6886 37.7601 37.7646 41.2871 35.768C43.0637 34.7624 44.7899 33.7308 46.2076 32.8189C47.5887 31.9305 48.7131 31.133 49.2935 30.5759L51.1551 29.2513L51.1661 29.2435L51.1767 29.235C52.7021 28.0201 54.1753 26.7482 55.5817 25.3994L55.5896 25.3918L55.5972 25.3839L57.4087 23.4878Z" fill="black" stroke="black"/>
</svg>
