<svg width="62" height="62" viewBox="0 0 62 62" fill="none" xmlns="http://www.w3.org/2000/svg">
<path d="M31.5165 10.333L8.7832 18.083L31.5165 29.9663L54.2499 18.083L31.5165 10.333Z" fill="#FFDA56" stroke="black"/>
<g clip-path="url(#clip0_6296_84391)">
<mask id="path-2-outside-1_6296_84391" maskUnits="userSpaceOnUse" x="0" y="-1" width="62" height="61" fill="black">
<rect fill="white" y="-1" width="62" height="61"/>
<path d="M31.3103 8.53572C32.4718 5.87784 33.585 3.3274 34.6982 0.780133C35.0553 -0.0352459 35.258 -0.130057 36.1203 0.125934C44.0735 2.4741 52.0268 4.82542 59.9801 7.17675C61.1158 7.51175 61.2316 7.79934 60.6783 8.84859C59.1275 11.7751 57.5896 14.7048 56.0163 17.6186C55.7911 18.0358 55.775 18.3392 56.0067 18.7595C57.3933 21.2974 58.7478 23.8541 60.112 26.4014C60.5785 27.2736 60.5045 27.5138 59.6101 27.9847C58.3167 28.661 57.0298 29.3532 55.7203 30.001C55.3053 30.2065 55.1573 30.434 55.1573 30.8986C55.1766 36.2997 55.1573 41.7008 55.1862 47.1019C55.1895 47.8129 54.9482 48.1922 54.2983 48.4988C46.908 51.9878 39.5274 55.4958 32.1533 59.0165C31.5999 59.282 31.1527 59.2756 30.5993 59.0102C23.2251 55.4895 15.8445 51.9815 8.45429 48.4925C7.83335 48.1985 7.57918 47.8414 7.58239 47.1525C7.60813 41.7292 7.59205 36.3092 7.60491 30.8859C7.60491 30.4593 7.49231 30.2254 7.09014 30.0232C5.70668 29.3373 4.34253 28.6073 2.97515 27.8867C2.30595 27.536 2.20299 27.2294 2.55368 26.572C3.95323 23.9458 5.35277 21.3194 6.77162 18.7026C6.96466 18.3455 6.95823 18.0927 6.74267 17.7388C4.91521 14.7016 3.11028 11.6487 1.29892 8.60209C0.771271 7.71401 0.919269 7.33477 1.9263 7.06298C9.95679 4.89812 17.9937 2.74273 26.021 0.568387C26.6355 0.400887 26.9862 0.58735 27.2661 1.10566C28.4855 3.37797 29.7177 5.6408 30.9468 7.9068C31.0433 8.08694 31.1527 8.26076 31.3103 8.53572ZM9.92462 18.3203C10.108 18.4214 10.1627 18.4561 10.2174 18.4814C17.154 21.8852 24.0938 25.2858 31.024 28.7053C31.3875 28.8854 31.6224 28.7526 31.8991 28.6168C37.0662 26.0821 42.23 23.5444 47.3971 21.0066C49.173 20.1344 50.9522 19.2652 52.7314 18.3929C52.6252 18.1591 52.4225 18.1813 52.2745 18.1307C45.4473 15.8267 38.6169 13.5355 31.7865 11.2347C31.4841 11.1335 31.2234 11.162 30.9275 11.26C25.7282 13.014 20.5226 14.7553 15.3201 16.503C13.5602 17.094 11.8003 17.6851 9.9214 18.3171L9.92462 18.3203ZM53.6355 31.1103C53.3556 31.2557 53.1529 31.3568 52.9502 31.4643C47.603 34.2549 42.2557 37.0455 36.9085 39.833C36.1331 40.2375 35.8371 40.1459 35.4446 39.381C34.4408 37.4248 33.4434 35.4622 32.4428 33.5059C32.3785 33.3795 32.3495 33.212 32.1919 33.1551V57.2404C32.2498 57.2499 32.2755 57.2657 32.2884 57.2562C39.2893 53.9378 46.2871 50.6162 53.2912 47.3041C53.5679 47.1745 53.6387 47.007 53.6387 46.7226C53.6323 41.5522 53.6323 36.3819 53.6323 31.1103H53.6355ZM30.5896 32.9939C30.4288 33.2847 30.329 33.4553 30.2389 33.6323C29.2898 35.5001 28.3439 37.3679 27.3948 39.2325C26.9122 40.1838 26.6548 40.2628 25.7121 39.7698C21.5328 37.5828 17.3503 35.3958 13.1709 33.212C11.8486 32.5199 10.523 31.8341 9.18463 31.1388C9.15889 31.2368 9.13637 31.2715 9.13637 31.3094C9.13637 36.4577 9.13637 41.6028 9.1235 46.7511C9.1235 47.1019 9.30367 47.2125 9.56106 47.3357C16.4237 50.5878 23.2863 53.8461 30.1521 57.0982C30.284 57.1613 30.4127 57.3257 30.5864 57.2214V32.9971L30.5896 32.9939ZM54.3111 17.2142C54.6071 17.2647 54.62 16.9929 54.7069 16.8286C56.0871 14.2402 57.4577 11.6456 58.8476 9.06349C59.076 8.63685 59.0824 8.46935 58.5452 8.31133C51.1967 6.15911 43.8515 3.98792 36.5128 1.8041C36.0945 1.68084 35.924 1.7567 35.7567 2.14858C34.74 4.53467 33.7105 6.9176 32.6455 9.28157C32.4235 9.77459 32.5168 9.90416 33.0155 10.0685C39.9714 12.3882 46.9209 14.73 53.8736 17.0688C54.0151 17.1161 54.1567 17.1604 54.3111 17.211V17.2142ZM30.2293 9.81567C30.1682 9.69241 30.1231 9.5976 30.0749 9.50595C28.8072 7.16727 27.5235 4.83491 26.2816 2.48042C26.0789 2.09801 25.8634 2.17703 25.5706 2.25603C18.1932 4.24708 10.819 6.23812 3.43845 8.2102C2.99768 8.32713 2.95907 8.42826 3.19072 8.81067C4.79617 11.4685 6.38876 14.1359 7.95561 16.8127C8.18725 17.2079 8.38351 17.2457 8.79855 17.1035C13.113 15.6371 17.4371 14.1959 21.7548 12.7485C24.4284 11.851 27.0988 10.9503 29.7692 10.0527C29.9365 9.99578 30.1328 9.98633 30.2261 9.81567H30.2293ZM30.3001 30.1212C30.2422 29.9157 30.0105 29.8841 29.8432 29.8019C22.794 26.3413 15.7416 22.8902 8.69559 19.4232C8.3449 19.2526 8.18725 19.2431 7.98456 19.6255C6.81023 21.8725 5.61659 24.1069 4.40044 26.3318C4.18166 26.7301 4.27174 26.8691 4.65139 27.0682C11.6716 30.7184 18.6855 34.3814 25.6928 38.0569C26.0564 38.2465 26.2044 38.2212 26.3942 37.8451C27.6168 35.3895 28.8716 32.9497 30.1135 30.5035C30.1714 30.3929 30.2261 30.2791 30.3001 30.1243V30.1212ZM54.4398 19.2494C54.3304 19.3 54.2339 19.3442 54.1374 19.3916C47.0335 22.8775 39.9328 26.3698 32.8257 29.8431C32.4846 30.0106 32.43 30.1212 32.6101 30.4688C33.8649 32.8865 35.1004 35.3105 36.3133 37.7472C36.5289 38.1801 36.6994 38.2623 37.1466 38.0221C39.5371 36.7453 41.9436 35.5033 44.3438 34.2486C48.9382 31.8467 53.5325 29.4416 58.1269 27.0398C58.3682 26.9133 58.632 26.8596 58.4132 26.4614C57.1488 24.1449 55.9134 21.8125 54.6683 19.4833C54.6136 19.379 54.5878 19.2431 54.4366 19.2463L54.4398 19.2494Z"/>
</mask>
<path d="M31.3103 8.53572C32.4718 5.87784 33.585 3.3274 34.6982 0.780133C35.0553 -0.0352459 35.258 -0.130057 36.1203 0.125934C44.0735 2.4741 52.0268 4.82542 59.9801 7.17675C61.1158 7.51175 61.2316 7.79934 60.6783 8.84859C59.1275 11.7751 57.5896 14.7048 56.0163 17.6186C55.7911 18.0358 55.775 18.3392 56.0067 18.7595C57.3933 21.2974 58.7478 23.8541 60.112 26.4014C60.5785 27.2736 60.5045 27.5138 59.6101 27.9847C58.3167 28.661 57.0298 29.3532 55.7203 30.001C55.3053 30.2065 55.1573 30.434 55.1573 30.8986C55.1766 36.2997 55.1573 41.7008 55.1862 47.1019C55.1895 47.8129 54.9482 48.1922 54.2983 48.4988C46.908 51.9878 39.5274 55.4958 32.1533 59.0165C31.5999 59.282 31.1527 59.2756 30.5993 59.0102C23.2251 55.4895 15.8445 51.9815 8.45429 48.4925C7.83335 48.1985 7.57918 47.8414 7.58239 47.1525C7.60813 41.7292 7.59205 36.3092 7.60491 30.8859C7.60491 30.4593 7.49231 30.2254 7.09014 30.0232C5.70668 29.3373 4.34253 28.6073 2.97515 27.8867C2.30595 27.536 2.20299 27.2294 2.55368 26.572C3.95323 23.9458 5.35277 21.3194 6.77162 18.7026C6.96466 18.3455 6.95823 18.0927 6.74267 17.7388C4.91521 14.7016 3.11028 11.6487 1.29892 8.60209C0.771271 7.71401 0.919269 7.33477 1.9263 7.06298C9.95679 4.89812 17.9937 2.74273 26.021 0.568387C26.6355 0.400887 26.9862 0.58735 27.2661 1.10566C28.4855 3.37797 29.7177 5.6408 30.9468 7.9068C31.0433 8.08694 31.1527 8.26076 31.3103 8.53572ZM9.92462 18.3203C10.108 18.4214 10.1627 18.4561 10.2174 18.4814C17.154 21.8852 24.0938 25.2858 31.024 28.7053C31.3875 28.8854 31.6224 28.7526 31.8991 28.6168C37.0662 26.0821 42.23 23.5444 47.3971 21.0066C49.173 20.1344 50.9522 19.2652 52.7314 18.3929C52.6252 18.1591 52.4225 18.1813 52.2745 18.1307C45.4473 15.8267 38.6169 13.5355 31.7865 11.2347C31.4841 11.1335 31.2234 11.162 30.9275 11.26C25.7282 13.014 20.5226 14.7553 15.3201 16.503C13.5602 17.094 11.8003 17.6851 9.9214 18.3171L9.92462 18.3203ZM53.6355 31.1103C53.3556 31.2557 53.1529 31.3568 52.9502 31.4643C47.603 34.2549 42.2557 37.0455 36.9085 39.833C36.1331 40.2375 35.8371 40.1459 35.4446 39.381C34.4408 37.4248 33.4434 35.4622 32.4428 33.5059C32.3785 33.3795 32.3495 33.212 32.1919 33.1551V57.2404C32.2498 57.2499 32.2755 57.2657 32.2884 57.2562C39.2893 53.9378 46.2871 50.6162 53.2912 47.3041C53.5679 47.1745 53.6387 47.007 53.6387 46.7226C53.6323 41.5522 53.6323 36.3819 53.6323 31.1103H53.6355ZM30.5896 32.9939C30.4288 33.2847 30.329 33.4553 30.2389 33.6323C29.2898 35.5001 28.3439 37.3679 27.3948 39.2325C26.9122 40.1838 26.6548 40.2628 25.7121 39.7698C21.5328 37.5828 17.3503 35.3958 13.1709 33.212C11.8486 32.5199 10.523 31.8341 9.18463 31.1388C9.15889 31.2368 9.13637 31.2715 9.13637 31.3094C9.13637 36.4577 9.13637 41.6028 9.1235 46.7511C9.1235 47.1019 9.30367 47.2125 9.56106 47.3357C16.4237 50.5878 23.2863 53.8461 30.1521 57.0982C30.284 57.1613 30.4127 57.3257 30.5864 57.2214V32.9971L30.5896 32.9939ZM54.3111 17.2142C54.6071 17.2647 54.62 16.9929 54.7069 16.8286C56.0871 14.2402 57.4577 11.6456 58.8476 9.06349C59.076 8.63685 59.0824 8.46935 58.5452 8.31133C51.1967 6.15911 43.8515 3.98792 36.5128 1.8041C36.0945 1.68084 35.924 1.7567 35.7567 2.14858C34.74 4.53467 33.7105 6.9176 32.6455 9.28157C32.4235 9.77459 32.5168 9.90416 33.0155 10.0685C39.9714 12.3882 46.9209 14.73 53.8736 17.0688C54.0151 17.1161 54.1567 17.1604 54.3111 17.211V17.2142ZM30.2293 9.81567C30.1682 9.69241 30.1231 9.5976 30.0749 9.50595C28.8072 7.16727 27.5235 4.83491 26.2816 2.48042C26.0789 2.09801 25.8634 2.17703 25.5706 2.25603C18.1932 4.24708 10.819 6.23812 3.43845 8.2102C2.99768 8.32713 2.95907 8.42826 3.19072 8.81067C4.79617 11.4685 6.38876 14.1359 7.95561 16.8127C8.18725 17.2079 8.38351 17.2457 8.79855 17.1035C13.113 15.6371 17.4371 14.1959 21.7548 12.7485C24.4284 11.851 27.0988 10.9503 29.7692 10.0527C29.9365 9.99578 30.1328 9.98633 30.2261 9.81567H30.2293ZM30.3001 30.1212C30.2422 29.9157 30.0105 29.8841 29.8432 29.8019C22.794 26.3413 15.7416 22.8902 8.69559 19.4232C8.3449 19.2526 8.18725 19.2431 7.98456 19.6255C6.81023 21.8725 5.61659 24.1069 4.40044 26.3318C4.18166 26.7301 4.27174 26.8691 4.65139 27.0682C11.6716 30.7184 18.6855 34.3814 25.6928 38.0569C26.0564 38.2465 26.2044 38.2212 26.3942 37.8451C27.6168 35.3895 28.8716 32.9497 30.1135 30.5035C30.1714 30.3929 30.2261 30.2791 30.3001 30.1243V30.1212ZM54.4398 19.2494C54.3304 19.3 54.2339 19.3442 54.1374 19.3916C47.0335 22.8775 39.9328 26.3698 32.8257 29.8431C32.4846 30.0106 32.43 30.1212 32.6101 30.4688C33.8649 32.8865 35.1004 35.3105 36.3133 37.7472C36.5289 38.1801 36.6994 38.2623 37.1466 38.0221C39.5371 36.7453 41.9436 35.5033 44.3438 34.2486C48.9382 31.8467 53.5325 29.4416 58.1269 27.0398C58.3682 26.9133 58.632 26.8596 58.4132 26.4614C57.1488 24.1449 55.9134 21.8125 54.6683 19.4833C54.6136 19.379 54.5878 19.2431 54.4366 19.2463L54.4398 19.2494Z" fill="black"/>
<path d="M31.3103 8.53572C32.4718 5.87784 33.585 3.3274 34.6982 0.780133C35.0553 -0.0352459 35.258 -0.130057 36.1203 0.125934C44.0735 2.4741 52.0268 4.82542 59.9801 7.17675C61.1158 7.51175 61.2316 7.79934 60.6783 8.84859C59.1275 11.7751 57.5896 14.7048 56.0163 17.6186C55.7911 18.0358 55.775 18.3392 56.0067 18.7595C57.3933 21.2974 58.7478 23.8541 60.112 26.4014C60.5785 27.2736 60.5045 27.5138 59.6101 27.9847C58.3167 28.661 57.0298 29.3532 55.7203 30.001C55.3053 30.2065 55.1573 30.434 55.1573 30.8986C55.1766 36.2997 55.1573 41.7008 55.1862 47.1019C55.1895 47.8129 54.9482 48.1922 54.2983 48.4988C46.908 51.9878 39.5274 55.4958 32.1533 59.0165C31.5999 59.282 31.1527 59.2756 30.5993 59.0102C23.2251 55.4895 15.8445 51.9815 8.45429 48.4925C7.83335 48.1985 7.57918 47.8414 7.58239 47.1525C7.60813 41.7292 7.59205 36.3092 7.60491 30.8859C7.60491 30.4593 7.49231 30.2254 7.09014 30.0232C5.70668 29.3373 4.34253 28.6073 2.97515 27.8867C2.30595 27.536 2.20299 27.2294 2.55368 26.572C3.95323 23.9458 5.35277 21.3194 6.77162 18.7026C6.96466 18.3455 6.95823 18.0927 6.74267 17.7388C4.91521 14.7016 3.11028 11.6487 1.29892 8.60209C0.771271 7.71401 0.919269 7.33477 1.9263 7.06298C9.95679 4.89812 17.9937 2.74273 26.021 0.568387C26.6355 0.400887 26.9862 0.58735 27.2661 1.10566C28.4855 3.37797 29.7177 5.6408 30.9468 7.9068C31.0433 8.08694 31.1527 8.26076 31.3103 8.53572ZM9.92462 18.3203C10.108 18.4214 10.1627 18.4561 10.2174 18.4814C17.154 21.8852 24.0938 25.2858 31.024 28.7053C31.3875 28.8854 31.6224 28.7526 31.8991 28.6168C37.0662 26.0821 42.23 23.5444 47.3971 21.0066C49.173 20.1344 50.9522 19.2652 52.7314 18.3929C52.6252 18.1591 52.4225 18.1813 52.2745 18.1307C45.4473 15.8267 38.6169 13.5355 31.7865 11.2347C31.4841 11.1335 31.2234 11.162 30.9275 11.26C25.7282 13.014 20.5226 14.7553 15.3201 16.503C13.5602 17.094 11.8003 17.6851 9.9214 18.3171L9.92462 18.3203ZM53.6355 31.1103C53.3556 31.2557 53.1529 31.3568 52.9502 31.4643C47.603 34.2549 42.2557 37.0455 36.9085 39.833C36.1331 40.2375 35.8371 40.1459 35.4446 39.381C34.4408 37.4248 33.4434 35.4622 32.4428 33.5059C32.3785 33.3795 32.3495 33.212 32.1919 33.1551V57.2404C32.2498 57.2499 32.2755 57.2657 32.2884 57.2562C39.2893 53.9378 46.2871 50.6162 53.2912 47.3041C53.5679 47.1745 53.6387 47.007 53.6387 46.7226C53.6323 41.5522 53.6323 36.3819 53.6323 31.1103H53.6355ZM30.5896 32.9939C30.4288 33.2847 30.329 33.4553 30.2389 33.6323C29.2898 35.5001 28.3439 37.3679 27.3948 39.2325C26.9122 40.1838 26.6548 40.2628 25.7121 39.7698C21.5328 37.5828 17.3503 35.3958 13.1709 33.212C11.8486 32.5199 10.523 31.8341 9.18463 31.1388C9.15889 31.2368 9.13637 31.2715 9.13637 31.3094C9.13637 36.4577 9.13637 41.6028 9.1235 46.7511C9.1235 47.1019 9.30367 47.2125 9.56106 47.3357C16.4237 50.5878 23.2863 53.8461 30.1521 57.0982C30.284 57.1613 30.4127 57.3257 30.5864 57.2214V32.9971L30.5896 32.9939ZM54.3111 17.2142C54.6071 17.2647 54.62 16.9929 54.7069 16.8286C56.0871 14.2402 57.4577 11.6456 58.8476 9.06349C59.076 8.63685 59.0824 8.46935 58.5452 8.31133C51.1967 6.15911 43.8515 3.98792 36.5128 1.8041C36.0945 1.68084 35.924 1.7567 35.7567 2.14858C34.74 4.53467 33.7105 6.9176 32.6455 9.28157C32.4235 9.77459 32.5168 9.90416 33.0155 10.0685C39.9714 12.3882 46.9209 14.73 53.8736 17.0688C54.0151 17.1161 54.1567 17.1604 54.3111 17.211V17.2142ZM30.2293 9.81567C30.1682 9.69241 30.1231 9.5976 30.0749 9.50595C28.8072 7.16727 27.5235 4.83491 26.2816 2.48042C26.0789 2.09801 25.8634 2.17703 25.5706 2.25603C18.1932 4.24708 10.819 6.23812 3.43845 8.2102C2.99768 8.32713 2.95907 8.42826 3.19072 8.81067C4.79617 11.4685 6.38876 14.1359 7.95561 16.8127C8.18725 17.2079 8.38351 17.2457 8.79855 17.1035C13.113 15.6371 17.4371 14.1959 21.7548 12.7485C24.4284 11.851 27.0988 10.9503 29.7692 10.0527C29.9365 9.99578 30.1328 9.98633 30.2261 9.81567H30.2293ZM30.3001 30.1212C30.2422 29.9157 30.0105 29.8841 29.8432 29.8019C22.794 26.3413 15.7416 22.8902 8.69559 19.4232C8.3449 19.2526 8.18725 19.2431 7.98456 19.6255C6.81023 21.8725 5.61659 24.1069 4.40044 26.3318C4.18166 26.7301 4.27174 26.8691 4.65139 27.0682C11.6716 30.7184 18.6855 34.3814 25.6928 38.0569C26.0564 38.2465 26.2044 38.2212 26.3942 37.8451C27.6168 35.3895 28.8716 32.9497 30.1135 30.5035C30.1714 30.3929 30.2261 30.2791 30.3001 30.1243V30.1212ZM54.4398 19.2494C54.3304 19.3 54.2339 19.3442 54.1374 19.3916C47.0335 22.8775 39.9328 26.3698 32.8257 29.8431C32.4846 30.0106 32.43 30.1212 32.6101 30.4688C33.8649 32.8865 35.1004 35.3105 36.3133 37.7472C36.5289 38.1801 36.6994 38.2623 37.1466 38.0221C39.5371 36.7453 41.9436 35.5033 44.3438 34.2486C48.9382 31.8467 53.5325 29.4416 58.1269 27.0398C58.3682 26.9133 58.632 26.8596 58.4132 26.4614C57.1488 24.1449 55.9134 21.8125 54.6683 19.4833C54.6136 19.379 54.5878 19.2431 54.4366 19.2463L54.4398 19.2494Z" stroke="black" stroke-width="0.6" mask="url(#path-2-outside-1_6296_84391)"/>
<path d="M13.2254 45.5416L13.2254 45.5419C13.2254 45.8168 13.17 46.069 13.0209 46.2609C12.8683 46.4573 12.6357 46.5675 12.3314 46.5921L12.3312 46.5922C12.0473 46.6147 11.8049 46.5141 11.6368 46.3117C11.473 46.1143 11.391 45.8343 11.3875 45.5119L11.3875 45.5112C11.3832 44.7857 11.3847 44.0583 11.3861 43.3321C11.3868 42.9696 11.3875 42.6073 11.3875 42.2456V42.1828L11.3907 42.1796C11.3906 41.8389 11.39 41.4975 11.3893 41.1559C11.3879 40.4298 11.3864 39.7025 11.3907 38.977L13.2254 45.5416ZM13.2254 45.5416C13.2222 43.3423 13.2222 41.1461 13.2254 38.95M13.2254 45.5416L12.334 37.8991M12.334 37.8991C12.0491 37.8768 11.8055 37.9734 11.6367 38.1753C11.4724 38.3719 11.3924 38.652 11.3907 38.9769L12.334 37.8991ZM12.334 37.8991C12.6405 37.922 12.8736 38.0333 13.0254 38.231C13.1736 38.4239 13.2271 38.6768 13.2254 38.95M13.2254 38.95C13.2254 38.9501 13.2254 38.9502 13.2254 38.9503L13.0754 38.9494L13.2254 38.9496C13.2254 38.9497 13.2254 38.9498 13.2254 38.95Z" fill="black" stroke="black" stroke-width="0.3"/>
<path d="M44.5265 55.5345C44.0348 55.7609 43.5431 55.9873 43.0516 56.2133V56.2104L42.839 56.3078C42.4729 56.4758 42.1066 56.6436 41.7405 56.8114C40.2601 57.4898 38.7802 58.168 37.3046 58.8522C36.7876 59.0916 36.3877 59.359 36.1494 59.6284C36.03 59.7634 35.9439 59.907 35.911 60.0553C35.877 60.2084 35.9017 60.3594 35.9914 60.4937L35.9914 60.4937L35.9919 60.4944C36.1824 60.7762 36.4843 60.881 36.8336 60.8661C37.1769 60.8514 37.5831 60.7219 38.0256 60.5182L38.0257 60.5182C41.748 58.8022 45.4736 57.0925 49.1992 55.3859L49.1993 55.3859C49.6398 55.184 50.0026 54.9617 50.2356 54.7124C50.4732 54.4584 50.5875 54.1611 50.4866 53.8338L50.4865 53.8334C50.4388 53.68 50.3387 53.5648 50.2 53.4918C50.0653 53.421 49.9003 53.3931 49.7198 53.3961C49.3597 53.4021 48.8964 53.5322 48.3733 53.7698L48.3732 53.7699C47.0898 54.3541 45.8077 54.9445 44.5265 55.5345Z" fill="black" stroke="black" stroke-width="0.3"/>
</g>
<defs>
<clipPath id="clip0_6296_84391">
<rect width="62" height="62" fill="white"/>
</clipPath>
</defs>
</svg>
