<svg width="62" height="62" viewBox="0 0 62 62" fill="none" xmlns="http://www.w3.org/2000/svg">
<path d="M49.0835 29.5387V13.3929M49.0835 13.3929L38.7502 3.05957M49.0835 13.3929H40.7502C39.6456 13.3929 38.7502 12.4975 38.7502 11.3929V3.05957M38.7502 3.05957H9.45849C7.80164 3.05957 6.4585 4.40272 6.4585 6.05957V54.9554C6.4585 56.6122 7.80164 57.9554 9.4585 57.9554H20.021" stroke="black" stroke-width="2" stroke-linecap="round"/>
<path d="M12.271 12.7471H27.771" stroke="black" stroke-width="2" stroke-linecap="round"/>
<path d="M12.271 19.2051H42.6252" stroke="black" stroke-width="2" stroke-linecap="round"/>
<path d="M12.271 25.0176H42.6252" stroke="black" stroke-width="2" stroke-linecap="round"/>
<path d="M50.6754 48.3182L44.4662 37.4145L42.727 37.9361C41.6695 38.2532 40.5449 38.2724 39.4772 37.9915L36.9551 37.3281C35.5243 36.9517 34.0049 37.1172 32.6887 37.7929L30.0341 39.1555L29.565 39.3963C28.8794 39.7482 28.2805 40.248 27.8115 40.8595L25.5295 43.8348C25.0506 44.4592 25.1655 45.3531 25.7867 45.8361C26.038 46.0314 26.3471 46.1375 26.6654 46.1375H27.4158C28.4415 46.1375 29.4191 45.7022 30.1055 44.9399L31.5282 43.3597C31.8683 42.982 32.3045 42.7036 32.7903 42.5542C33.6893 42.2777 34.667 42.4693 35.3951 43.0648L44.7415 50.7089C45.116 51.0151 45.4749 51.355 45.6904 51.7881C46.5612 53.5386 45.4147 54.9586 43.4593 54.3572C42.9559 56.5379 41.949 57.0412 39.9352 56.2024C39.4318 57.8799 38.5927 58.5509 36.7467 57.8799C36.7116 57.9583 36.6765 58.0338 36.6413 58.1064C35.6096 60.2359 32.7044 59.0913 30.8428 57.6306L18.1193 47.6472C17.3131 48.2516 16.2152 48.2876 15.3711 47.7374L13.6658 46.6257C13.2535 46.3569 13.1399 45.8033 13.413 45.3938L20.5005 34.7667C20.7664 34.368 21.2949 34.2419 21.7122 34.4777L23.3641 35.411C24.2561 35.915 24.766 36.8984 24.664 37.9178L30.0341 39.1555L32.6887 37.7929C34.0049 37.1172 35.5243 36.9517 36.9551 37.3281L39.4772 37.9915C40.5449 38.2724 41.6695 38.2532 42.727 37.9361L44.4662 37.4145C44.4662 36.693 44.8679 36.0315 45.5081 35.6987L47.8078 34.5034C48.2845 34.2556 48.8719 34.4288 49.1379 34.8957L55.0952 45.3532C55.349 45.7987 55.2247 46.364 54.8074 46.662L53.1441 47.8496C52.4295 48.3598 51.5272 48.5311 50.6754 48.3182Z" fill="#FFDA56"/>
<path d="M47.6547 50.6667L50.6754 48.3182M50.6754 48.3182L44.4662 37.4145M50.6754 48.3182V48.3182C51.5272 48.5311 52.4295 48.3598 53.1441 47.8496L54.8074 46.662C55.2247 46.364 55.349 45.7987 55.0952 45.3532L49.1379 34.8957C48.8719 34.4288 48.2845 34.2556 47.8078 34.5034L45.5081 35.6987C44.8679 36.0315 44.4662 36.693 44.4662 37.4145V37.4145M44.4662 37.4145L42.727 37.9361C41.6695 38.2532 40.5449 38.2724 39.4772 37.9915L36.9551 37.3281C35.5243 36.9517 34.0049 37.1172 32.6887 37.7929L30.0341 39.1555M43.4593 54.3572C45.4147 54.9586 46.5612 53.5386 45.6904 51.7881C45.4749 51.355 45.116 51.0151 44.7415 50.7089L35.3951 43.0648C34.667 42.4693 33.6893 42.2777 32.7903 42.5542V42.5542C32.3045 42.7036 31.8683 42.982 31.5282 43.3597L30.1055 44.9399C29.4191 45.7022 28.4415 46.1375 27.4158 46.1375H26.6654C26.3471 46.1375 26.038 46.0314 25.7867 45.8361V45.8361C25.1655 45.3531 25.0506 44.4592 25.5295 43.8348L27.8115 40.8595C28.2805 40.248 28.8794 39.7482 29.565 39.3963L30.0341 39.1555M43.4593 54.3572L37.7536 49.6602M43.4593 54.3572C42.9559 56.5379 41.949 57.0412 39.9352 56.2024M39.9352 56.2024L34.7329 51.6732M39.9352 56.2024C39.4318 57.8799 38.5927 58.5509 36.7467 57.8799M36.7467 57.8799L33.726 55.3637M36.7467 57.8799C36.7116 57.9583 36.6765 58.0338 36.6413 58.1064C35.6096 60.2359 32.7044 59.0913 30.8428 57.6306L18.1193 47.6472M18.1193 47.6472L24.664 37.9178M18.1193 47.6472V47.6472C17.3131 48.2516 16.2152 48.2876 15.3711 47.7374L13.6658 46.6257C13.2535 46.3569 13.1399 45.8033 13.413 45.3938L20.5005 34.7667C20.7664 34.368 21.2949 34.2419 21.7122 34.4777L23.3641 35.411C24.2561 35.915 24.766 36.8984 24.664 37.9178V37.9178M24.664 37.9178L30.0341 39.1555" stroke="black" stroke-width="2" stroke-linecap="round"/>
</svg>
