<svg width="62" height="62" viewBox="0 0 62 62" fill="none" xmlns="http://www.w3.org/2000/svg">
<path d="M24.7998 44.9503V28.9336L39.7831 36.6836L24.7998 44.9503Z" fill="#FFDA56" stroke="black"/>
<path d="M46.5 6.2002L31 10.3335L43.9167 20.1502L59.4167 16.0169L46.5 6.2002Z" fill="#FFDA56" stroke="black"/>
<path d="M1.00323 51.7857C1.30334 51.3154 1.72931 51.1705 2.28113 51.1801C3.7591 51.2091 5.23708 51.1898 6.74732 51.1898C6.62147 50.7356 6.6247 50.3266 6.6247 49.9207C6.6247 40.7602 6.6247 31.5996 6.6247 22.4358C6.6247 20.4259 7.67348 19.3791 9.69037 19.3791C16.3283 19.3791 22.9696 19.3791 29.6075 19.3791C29.7624 19.3791 29.9206 19.3726 30.0755 19.3823C30.6015 19.4177 30.9661 19.7753 30.9919 20.2648C31.0145 20.7416 30.666 21.1603 30.1626 21.2376C29.9722 21.2666 29.7721 21.2505 29.5785 21.2505C22.9792 21.2505 16.3768 21.2505 9.7775 21.2505C8.70935 21.2505 8.50282 21.4534 8.50282 22.4906C8.50282 31.6511 8.50282 40.8117 8.50282 49.9755C8.50282 50.945 8.74485 51.1898 9.70327 51.1898C23.2761 51.1898 36.8457 51.1898 50.4186 51.1898C51.3738 51.1898 51.619 50.9418 51.619 49.9723C51.619 43.0535 51.619 36.1316 51.619 29.2128C51.619 29.0163 51.5997 28.8199 51.6287 28.6298C51.7094 28.1273 52.0063 27.8213 52.5323 27.8085C53.0583 27.7956 53.3649 28.0951 53.4746 28.5879C53.5133 28.7554 53.4907 28.9358 53.4907 29.113C53.4907 36.0704 53.4907 43.031 53.4907 49.9884C53.4907 50.3781 53.4714 50.7614 53.3713 51.1898C54.8816 51.1898 56.3628 51.1898 57.844 51.1898C58.8379 51.1898 59.1412 51.5022 59.109 52.4846C59.0283 54.9938 57.1792 56.804 54.6944 56.804C38.3495 56.804 22.0047 56.804 5.65982 56.804C3.23955 56.804 1.84871 55.7797 1.14199 53.4767C1.10972 53.3736 1.14844 53.2319 1 53.1868V51.7825L1.00323 51.7857ZM3.03625 53.0838C3.34282 54.311 4.11407 54.9358 5.3113 54.9358C21.8111 54.9358 38.3076 54.9358 54.8073 54.9358C56.0078 54.9358 56.7726 54.3142 57.0824 53.0838H3.03625Z" fill="black"/>
<path d="M60.9936 16.6982C60.6322 17.0912 60.1578 17.249 59.6544 17.3714C58.2539 17.7129 56.863 18.0833 55.4625 18.4183C55.1656 18.4891 55.0559 18.6051 55.0011 18.9046C54.7558 20.2253 54.446 21.533 54.2266 22.8568C54.0588 23.865 53.5489 24.622 52.7712 25.2307C51.2835 26.3935 49.5345 26.9443 47.7048 27.1891C43.1063 27.8011 38.9628 26.6995 35.3614 23.7329C34.5288 23.0469 33.8447 22.2255 33.3123 21.2785C32.7669 20.3122 32.7927 19.3202 33.0283 18.2798C33.2832 17.1428 33.4575 15.9832 33.7285 14.8494C33.8253 14.4403 33.6866 14.2599 33.3897 14.0474C32.1505 13.1648 30.9339 12.2565 29.6948 11.3739C29.2978 11.0905 29.0268 10.7748 29.1268 10.2594C29.2236 9.76015 29.6109 9.58943 30.0433 9.47991C35.3291 8.14319 40.615 6.81614 45.8944 5.46331C46.4236 5.32803 46.827 5.43754 47.2498 5.74676C51.603 8.93878 55.9692 12.118 60.3256 15.3068C60.5644 15.4807 60.7742 15.6901 61.0001 15.8833V16.7015L60.9936 16.6982ZM32.2247 10.8618C32.37 10.9809 32.4539 11.0583 32.5442 11.1259C36.2101 13.8026 39.8792 16.476 43.5419 19.1591C43.7807 19.3363 43.984 19.3814 44.2841 19.304C47.9597 18.3571 51.6385 17.4326 55.3173 16.5018C56.1434 16.2924 56.9695 16.083 57.886 15.8479C54.02 13.0263 50.2606 10.282 46.5043 7.5312C46.2946 7.3766 46.1235 7.35083 45.8654 7.41525C43.0966 8.12709 40.3181 8.81961 37.5461 9.51857C35.7938 9.95985 34.0416 10.4044 32.2247 10.8618ZM53.0648 19.0045C50.0895 19.7582 47.2046 20.4733 44.3261 21.227C43.7226 21.3848 43.2644 21.3011 42.7577 20.9242C40.4956 19.23 38.2076 17.5744 35.9261 15.9091C35.8003 15.8157 35.697 15.6289 35.4808 15.6997C35.3065 16.6177 35.2194 17.5647 34.9354 18.444C34.5159 19.7453 34.9709 20.7181 35.8487 21.6039C36.1908 21.9485 36.5393 22.2964 36.9233 22.5927C40.0535 25.002 43.6 25.8492 47.4853 25.3112C48.86 25.1212 50.1928 24.7411 51.3642 23.9455C51.7708 23.6685 52.2 23.3786 52.3097 22.8762C52.5808 21.6264 52.8067 20.3638 53.0681 19.0045H53.0648Z" fill="black"/>
<path d="M23.457 36.6398C23.457 33.9889 23.457 31.338 23.457 28.6903C23.457 27.4985 24.0928 27.1185 25.1609 27.6757C30.266 30.3395 35.3712 33.0097 40.4763 35.6735C40.9055 35.8957 41.3121 36.1309 41.3025 36.6945C41.296 37.255 40.8797 37.4805 40.4537 37.7027C35.3647 40.3568 30.279 43.0174 25.1899 45.6747C24.0798 46.2545 23.457 45.8905 23.457 44.6504C23.457 41.9802 23.457 39.31 23.457 36.6398ZM38.353 36.6816C33.9707 34.3915 29.6852 32.1529 25.3674 29.895C25.3513 30.0399 25.3384 30.1172 25.3384 30.1913C25.3416 34.4591 25.3513 38.7238 25.3448 42.9916C25.3448 43.4168 25.4416 43.4393 25.7934 43.2557C28.0104 42.0801 30.237 40.9205 32.4604 39.7577C34.387 38.7495 36.3167 37.7446 38.353 36.6816Z" fill="black"/>
<path d="M30.0885 6.03389C31.3696 5.70857 32.6507 5.3768 33.9318 5.05792C34.645 4.88076 35.1581 5.11589 35.2582 5.68279C35.3711 6.33022 35.0258 6.67165 34.4191 6.82304C31.8311 7.4769 29.243 8.13399 26.6581 8.79751C26.0515 8.95212 25.5868 8.8104 25.377 8.19519C25.1931 7.65728 25.5384 7.19989 26.2451 7.01307C27.523 6.67809 28.8073 6.35921 30.0885 6.03389Z" fill="black"/>
<path d="M3.02026 35.6412C3.02026 33.1836 3.02026 30.7292 3.02671 28.2716C3.03317 26.9026 3.38491 26.0909 3.96255 26.1715C4.61763 26.2649 4.86289 27.0476 4.85966 28.2039C4.85321 33.1643 4.84998 38.1247 4.84998 43.085C4.84998 44.2478 4.59827 45.0208 3.94641 45.1175C3.37846 45.2012 3.02026 44.367 3.01703 43.0109C3.01058 40.5533 3.01703 38.0989 3.01703 35.6412H3.02026Z" fill="black"/>
</svg>
