<svg width="62" height="62" viewBox="0 0 62 62" fill="none" xmlns="http://www.w3.org/2000/svg">
<path d="M53.2167 37.7171L46.5 31.0005L53.2167 27.3838V37.7171Z" fill="#FFDA56"/>
<rect x="24.7998" y="2.06641" width="35.1333" height="32.0333" rx="16.0167" fill="#FFDA56"/>
<path d="M1 28.3861C1.24437 28.0671 1.22181 27.6656 1.32332 27.3016C2.25943 23.9807 5.33843 21.4627 8.78962 21.3952C12.831 21.3164 16.8762 21.3652 20.9177 21.3689C21.6771 21.3689 22.1997 21.8605 22.2109 22.5209C22.2222 23.2151 21.6696 23.703 20.8312 23.703C17.0605 23.7067 13.2935 23.703 9.52272 23.703C5.8798 23.703 3.34967 26.2359 3.34967 29.8758C3.34967 35.6659 3.34967 41.4559 3.34967 47.246C3.34967 50.8859 5.8798 53.415 9.52272 53.4188C11.8273 53.4188 14.1318 53.4301 16.4364 53.4113C17.0717 53.4075 17.5041 53.6214 17.9364 54.113C18.7672 55.0624 19.7071 55.9142 20.6959 56.8936C20.6959 56.1393 20.6921 55.4902 20.6959 54.841C20.7071 53.8578 21.1432 53.4188 22.1395 53.4188C26.1621 53.415 30.1848 53.4188 34.2111 53.4188C37.8541 53.4188 40.3842 50.8896 40.388 47.2497C40.388 44.7919 40.388 42.3378 40.388 39.8799C40.388 39.6247 40.3767 39.3733 40.4707 39.1294C40.6662 38.6153 41.0496 38.3376 41.5872 38.3451C42.0948 38.3526 42.482 38.6228 42.6436 39.1219C42.7151 39.3395 42.7301 39.5797 42.7339 39.8123C42.7414 42.3678 42.7489 44.9194 42.7339 47.4749C42.7113 51.46 40.1474 54.6571 36.2676 55.5652C35.5984 55.7228 34.9179 55.7641 34.2337 55.7641C30.6772 55.7641 27.1245 55.7716 23.5681 55.7491C23.1207 55.7491 23.0192 55.8654 23.0343 56.2932C23.0681 57.3064 23.0117 58.3233 23.053 59.3327C23.0869 60.0944 22.8312 60.6273 22.1057 60.905H21.4026C21.2485 60.5973 20.9252 60.4659 20.6996 60.2333C19.3312 58.8449 17.9402 57.479 16.568 56.0906C16.3311 55.8504 16.098 55.7491 15.7559 55.7491C13.4739 55.7603 11.1882 55.7941 8.90616 55.7378C5.36098 55.6515 2.2707 53.1749 1.31956 49.7639C1.22557 49.4224 1.24812 49.0397 1.01128 48.7395V28.3823L1 28.3861Z" fill="black"/>
<path d="M23.9741 18.119C23.9666 10.6215 28.8652 3.97967 35.9706 1.77697C37.2413 1.38296 38.5421 1.11278 39.8729 1.0715C42.6812 0.981445 45.4896 0.850107 48.2565 1.57433C51.8468 2.5162 54.8206 4.42621 57.1589 7.27809C59.8169 10.5202 61.1026 14.2802 60.9936 18.4642C60.8695 23.2786 58.956 27.32 55.407 30.5697C54.892 31.0425 54.6439 31.4815 54.6664 32.1983C54.7228 33.9882 54.6739 35.7856 54.689 37.5793C54.6927 38.221 54.6251 38.8139 53.9446 39.0803C53.2679 39.3467 52.8017 38.964 52.3543 38.5137C51.1175 37.2679 49.8656 36.037 48.6287 34.7875C48.4069 34.5623 48.2227 34.4723 47.8768 34.5548C45.3805 35.1552 42.8391 35.0651 40.3015 34.9751C37.2074 34.8625 34.3502 33.9732 31.7788 32.2696C27.5794 29.4927 25.0343 25.6164 24.2034 20.6369C24.0568 19.7701 24.0155 18.8957 23.9779 18.1152L23.9741 18.119ZM52.3393 35.204C52.3393 34.0107 52.4258 32.9675 52.3167 31.9469C52.1776 30.6185 52.7002 29.7704 53.7078 28.9223C56.5236 26.5508 58.1026 23.4437 58.5387 19.8076C59.0236 15.7699 58.0011 12.1075 55.4672 8.92167C53.1326 5.98349 50.0836 4.1748 46.358 3.57816C44.0083 3.20291 41.6436 3.28171 39.2864 3.47683C37.7789 3.60067 36.3277 4.01344 34.9668 4.66637C30.2449 6.94037 27.3012 10.629 26.5268 15.8262C25.7072 21.3386 27.587 25.9166 31.8728 29.459C34.3014 31.4665 37.1473 32.5135 40.309 32.6335C42.8842 32.7311 45.467 32.8512 47.9858 32.1119C48.6889 31.9056 49.2265 32.0519 49.7265 32.5735C50.5423 33.4328 51.3919 34.2584 52.3355 35.204H52.3393Z" fill="black"/>
<path d="M20.8762 37.2749C24.8387 37.2749 28.8012 37.2749 32.7637 37.2749C32.9403 37.2749 33.117 37.2674 33.29 37.2862C33.9329 37.3575 34.3953 37.8453 34.399 38.4382C34.4028 39.0311 33.9441 39.5264 33.3013 39.6015C33.1283 39.624 32.9516 39.6127 32.7749 39.6127C24.8312 39.6127 16.8874 39.6127 8.94364 39.6127C8.88349 39.6127 8.82709 39.6127 8.76694 39.6127C7.88347 39.6015 7.31955 39.1324 7.33835 38.4195C7.35339 37.7253 7.90226 37.2749 8.75566 37.2749C12.7971 37.2749 16.8385 37.2749 20.8762 37.2749Z" fill="black"/>
<path d="M18.5227 46.1689C15.3384 46.1689 12.1541 46.1689 8.96984 46.1689C8.77435 46.1689 8.5751 46.1764 8.38337 46.1502C7.77057 46.0601 7.33447 45.576 7.33447 45.0019C7.33447 44.4315 7.76681 43.9437 8.37584 43.8462C8.52998 43.8236 8.68788 43.8274 8.84202 43.8274C15.3271 43.8274 21.8122 43.8274 28.2973 43.8274C29.0793 43.8274 29.5454 44.0901 29.7146 44.6192C29.9703 45.4109 29.4364 46.1352 28.5417 46.1614C27.6845 46.1877 26.8236 46.1689 25.9627 46.1689C23.4814 46.1689 21.0002 46.1689 18.5227 46.1689Z" fill="black"/>
<path d="M17.0528 33.0653C14.2821 33.0653 11.5114 33.069 8.74069 33.0653C7.70308 33.0653 7.07901 32.281 7.43992 31.4517C7.66924 30.9264 8.11287 30.7275 8.66551 30.7275C9.68056 30.7275 10.6956 30.7275 11.7106 30.7275C16.1393 30.7275 20.5679 30.7275 25.0004 30.7275C25.1169 30.7275 25.2334 30.7275 25.35 30.7275C26.2335 30.7388 26.7974 31.2078 26.7823 31.9208C26.7673 32.615 26.2222 33.0653 25.365 33.069C22.5943 33.0728 19.8236 33.069 17.0528 33.069V33.0653Z" fill="black"/>
<path d="M41.6586 20.1528C41.6586 19.8001 41.6586 19.4511 41.6586 19.0984C41.6661 17.785 42.1811 17.0683 43.4368 16.693C44.2977 16.4379 44.9331 15.9425 45.2489 15.0982C45.6323 14.0738 45.4481 13.1244 44.6849 12.3439C43.9406 11.5784 43.0082 11.342 41.9969 11.691C41.0006 12.0325 40.3841 12.7492 40.245 13.8224C40.2224 13.995 40.1924 14.1676 40.1585 14.3402C40.0232 14.9932 39.5495 15.3534 38.9066 15.2934C38.3239 15.2408 37.8728 14.7718 37.8765 14.1526C37.8916 12.6741 38.4329 11.3983 39.5683 10.4452C42.3804 8.08107 46.403 9.24809 47.5534 12.7304C48.3579 15.1583 46.9782 17.9501 44.5346 18.7757C44.1022 18.922 43.9669 19.1134 43.9932 19.5524C44.0346 20.1941 44.0158 20.8395 44.0007 21.4812C43.9819 22.318 43.4894 22.8734 42.8014 22.8584C42.1247 22.8433 41.6736 22.3105 41.6586 21.4999C41.651 21.0534 41.6586 20.6031 41.6586 20.1528Z" fill="black"/>
<path d="M42.8089 27.4667C42.1735 27.4592 41.666 26.9489 41.666 26.3147C41.666 25.6918 42.1885 25.1589 42.8089 25.1514C43.4367 25.1439 44.0156 25.7256 43.9968 26.341C43.9781 26.9526 43.4292 27.4704 42.8126 27.4629L42.8089 27.4667Z" fill="black"/>
</svg>
