<svg width="62" height="62" viewBox="0 0 62 62" fill="none" xmlns="http://www.w3.org/2000/svg">
<rect x="13.4331" y="1.0332" width="6.2" height="10.3333" fill="#FFDA56"/>
<rect x="41.3335" y="1.0332" width="6.2" height="10.3333" fill="#FFDA56"/>
<path d="M27.8998 30.9997L30.9998 25.3164L34.6164 31.5164L41.3331 32.5497L36.6831 38.2331V44.4331L30.9998 41.8497L24.7998 43.9164L25.3164 37.7164L21.1831 32.5497L27.8998 30.9997Z" fill="#FFDA56"/>
<path d="M3 20.5V9C3 7.89543 3.89543 7 5 7H13.5M3 20.5V59C3 60.1046 3.89543 61 5 61H57.5C58.6046 61 59.5 60.1046 59.5 59V20.5M3 20.5H59.5M59.5 20.5V9C59.5 7.89543 58.6046 7 57.5 7H48M41 7V2C41 1.44772 41.4477 1 42 1H47C47.5523 1 48 1.44772 48 2V7M41 7V11C41 11.5523 41.4477 12 42 12H47C47.5523 12 48 11.5523 48 11V7M41 7H20.5M13.5 7V2C13.5 1.44772 13.9477 1 14.5 1H19.5C20.0523 1 20.5 1.44772 20.5 2V7M13.5 7V11C13.5 11.5523 13.9477 12 14.5 12H19.5C20.0523 12 20.5 11.5523 20.5 11V7M19 50.5H49.5M49.5 50.5L47 48M49.5 50.5L47 53M13 54.5H43M13 54.5L15 52M13 54.5L15 57M27.1007 31.4794L21.8025 32.0523C20.9444 32.145 20.599 33.2082 21.2386 33.7876L25.1883 37.3653C25.4515 37.6038 25.5685 37.9639 25.4957 38.3115L24.4033 43.5274C24.2264 44.3722 25.1308 45.0292 25.8795 44.5999L30.5026 41.9492C30.8107 41.7726 31.1893 41.7726 31.4974 41.9492L36.1205 44.5999C36.8692 45.0292 37.7736 44.3722 37.5967 43.5274L36.5043 38.3115C36.4315 37.9639 36.5485 37.6038 36.8117 37.3653L40.7614 33.7876C41.401 33.2082 41.0556 32.145 40.1975 32.0523L34.8993 31.4794C34.5462 31.4412 34.2399 31.2186 34.0944 30.8946L31.9123 26.0327C31.5589 25.2453 30.4411 25.2453 30.0877 26.0327L27.9056 30.8946C27.7601 31.2186 27.4538 31.4412 27.1007 31.4794Z" stroke="black" stroke-width="2" stroke-linecap="round"/>
</svg>
