<?xml version="1.0" encoding="UTF-8" standalone="no"?><svg xmlns="http://www.w3.org/2000/svg" xmlns:xlink="http://www.w3.org/1999/xlink" fill="#000000" height="191.1" preserveAspectRatio="xMidYMid meet" version="1" viewBox="499.6 904.3 991.0 191.1" width="991" zoomAndPan="magnify"><g id="change1_1"><path d="M 618.542969 983.769531 C 620.1875 983.898438 621.800781 983.378906 623.066406 982.308594 C 624.328125 981.230469 625.097656 979.730469 625.230469 978.070312 C 625.363281 976.421875 624.847656 974.808594 623.769531 973.550781 C 622.695312 972.28125 621.191406 971.519531 619.539062 971.378906 C 619.367188 971.371094 619.199219 971.359375 619.03125 971.359375 C 617.558594 971.359375 616.148438 971.878906 615.015625 972.839844 L 615.011719 972.851562 C 612.40625 975.058594 612.089844 978.988281 614.3125 981.601562 C 615.386719 982.859375 616.890625 983.628906 618.542969 983.769531 Z M 686.769531 919.921875 C 685.695312 918.660156 684.191406 917.890625 682.539062 917.761719 C 682.367188 917.75 682.199219 917.738281 682.027344 917.738281 C 680.558594 917.738281 679.148438 918.261719 678.015625 919.21875 C 676.75 920.300781 675.980469 921.800781 675.847656 923.449219 C 675.714844 925.109375 676.234375 926.710938 677.308594 927.980469 C 678.386719 929.238281 679.886719 930.011719 681.542969 930.140625 C 683.179688 930.28125 684.800781 929.761719 686.066406 928.679688 C 688.671875 926.460938 688.988281 922.53125 686.769531 919.921875 Z M 754.894531 946.359375 C 784.5625 981.21875 780.339844 1033.710938 745.488281 1063.378906 C 729.894531 1076.648438 710.773438 1083.140625 691.742188 1083.140625 C 668.234375 1083.140625 644.867188 1073.230469 628.46875 1053.96875 C 614.253906 1037.269531 607.320312 1015.730469 608.929688 994.019531 C 607.226562 992.96875 605.671875 991.660156 604.335938 990.089844 C 597.433594 981.980469 598.417969 969.769531 606.527344 962.871094 C 614.632812 955.96875 626.84375 956.949219 633.746094 965.058594 C 637.089844 968.988281 638.699219 973.980469 638.289062 979.121094 C 637.875 984.261719 635.484375 988.941406 631.554688 992.28125 C 628.757812 994.660156 625.414062 996.148438 621.867188 996.671875 C 620.980469 1014.378906 626.835938 1031.839844 638.445312 1045.480469 C 663.429688 1074.828125 707.640625 1078.390625 736.996094 1053.398438 C 766.351562 1028.421875 769.90625 984.210938 744.921875 954.851562 C 733.46875 941.398438 717.445312 932.871094 700.09375 930.769531 C 698.980469 933.730469 697.132812 936.460938 694.554688 938.660156 C 691.03125 941.660156 686.648438 943.261719 682.070312 943.261719 C 681.546875 943.261719 681.019531 943.238281 680.492188 943.199219 C 675.351562 942.78125 670.679688 940.390625 667.335938 936.46875 C 663.992188 932.539062 662.378906 927.539062 662.789062 922.398438 C 663.203125 917.261719 665.597656 912.589844 669.523438 909.25 C 673.453125 905.898438 678.464844 904.289062 683.585938 904.699219 C 688.730469 905.121094 693.402344 907.511719 696.742188 911.429688 C 698.34375 913.308594 699.5 915.421875 700.261719 917.621094 C 721.402344 919.820312 740.984375 930.019531 754.894531 946.359375 Z M 1367.859375 1045.371094 C 1367.820312 1043.710938 1367.140625 1042.171875 1365.941406 1041.019531 C 1364.78125 1039.910156 1363.261719 1039.300781 1361.660156 1039.300781 C 1361.609375 1039.300781 1361.558594 1039.300781 1361.511719 1039.300781 C 1358.089844 1039.378906 1355.359375 1042.230469 1355.441406 1045.660156 C 1355.480469 1047.320312 1356.160156 1048.859375 1357.359375 1050.011719 C 1358.558594 1051.148438 1360.140625 1051.78125 1361.800781 1051.71875 C 1365.21875 1051.640625 1367.941406 1048.789062 1367.859375 1045.371094 Z M 1353.53125 962.949219 C 1353.570312 964.609375 1354.25 966.148438 1355.449219 967.300781 C 1356.648438 968.441406 1358.21875 969.070312 1359.878906 969.011719 C 1361.539062 968.980469 1363.089844 968.289062 1364.230469 967.089844 C 1365.378906 965.890625 1365.988281 964.320312 1365.949219 962.660156 C 1365.871094 959.289062 1363.101562 956.589844 1359.738281 956.589844 C 1359.691406 956.589844 1359.640625 956.589844 1359.601562 956.601562 C 1356.171875 956.671875 1353.449219 959.519531 1353.53125 962.949219 Z M 1374.988281 1031.550781 C 1378.71875 1035.109375 1380.839844 1039.910156 1380.960938 1045.070312 C 1381.199219 1055.710938 1372.738281 1064.570312 1362.101562 1064.820312 C 1361.949219 1064.820312 1361.789062 1064.820312 1361.640625 1064.820312 C 1359.371094 1064.820312 1357.160156 1064.410156 1355.070312 1063.660156 C 1340.039062 1078.679688 1319.78125 1087.449219 1298.328125 1087.941406 C 1297.679688 1087.960938 1297.03125 1087.960938 1296.378906 1087.960938 C 1251.488281 1087.960938 1214.46875 1051.988281 1213.421875 1006.871094 C 1212.371094 961.109375 1248.730469 923.019531 1294.488281 921.96875 C 1316.429688 921.480469 1337.511719 929.660156 1353.351562 944.589844 C 1355.21875 943.941406 1357.210938 943.550781 1359.289062 943.5 C 1369.898438 943.269531 1378.800781 951.710938 1379.039062 962.359375 C 1379.160156 967.511719 1377.269531 972.410156 1373.710938 976.140625 C 1370.148438 979.871094 1365.339844 981.988281 1360.191406 982.109375 C 1360.03125 982.109375 1359.878906 982.109375 1359.730469 982.109375 C 1354.738281 982.109375 1350.03125 980.230469 1346.410156 976.769531 C 1342.679688 973.210938 1340.558594 968.410156 1340.441406 963.25 C 1340.351562 959.5 1341.359375 955.980469 1343.148438 952.96875 C 1329.949219 941.109375 1312.691406 934.621094 1294.800781 935.058594 C 1256.261719 935.949219 1225.628906 968.03125 1226.519531 1006.570312 C 1227.398438 1044.558594 1258.578125 1074.871094 1296.390625 1074.871094 C 1296.929688 1074.871094 1297.480469 1074.859375 1298.03125 1074.851562 C 1315.691406 1074.441406 1332.398438 1067.378906 1344.96875 1055.238281 C 1343.339844 1052.449219 1342.429688 1049.28125 1342.351562 1045.960938 C 1342.101562 1035.320312 1350.558594 1026.460938 1361.210938 1026.210938 C 1366.390625 1026.089844 1371.261719 1027.988281 1374.988281 1031.550781 Z M 608.269531 1076.550781 C 608.402344 1074.890625 607.886719 1073.289062 606.808594 1072.019531 C 605.582031 1070.578125 603.832031 1069.839844 602.074219 1069.839844 C 600.648438 1069.839844 599.222656 1070.328125 598.054688 1071.320312 C 595.445312 1073.539062 595.128906 1077.46875 597.347656 1080.078125 C 598.425781 1081.339844 599.925781 1082.109375 601.582031 1082.238281 C 603.226562 1082.371094 604.839844 1081.851562 606.105469 1080.78125 C 607.367188 1079.699219 608.136719 1078.199219 608.269531 1076.550781 Z M 665.066406 1016.210938 C 663.59375 1016.210938 662.1875 1016.730469 661.054688 1017.699219 C 659.789062 1018.769531 659.019531 1020.269531 658.886719 1021.929688 C 658.753906 1023.578125 659.273438 1025.191406 660.347656 1026.449219 C 662.570312 1029.058594 666.5 1029.371094 669.105469 1027.160156 L 669.105469 1027.148438 C 671.710938 1024.941406 672.027344 1021.011719 669.808594 1018.398438 C 668.734375 1017.140625 667.230469 1016.371094 665.574219 1016.230469 C 665.40625 1016.21875 665.238281 1016.210938 665.066406 1016.210938 Z M 616.78125 1063.53125 C 620.128906 1067.460938 621.738281 1072.460938 621.328125 1077.601562 C 620.914062 1082.738281 618.519531 1087.410156 614.59375 1090.75 C 611.070312 1093.75 606.6875 1095.359375 602.109375 1095.359375 C 601.585938 1095.359375 601.058594 1095.339844 600.53125 1095.300781 C 595.390625 1094.878906 590.71875 1092.488281 587.375 1088.558594 C 585.773438 1086.691406 584.617188 1084.578125 583.855469 1082.378906 C 562.714844 1080.179688 543.132812 1069.980469 529.222656 1053.640625 C 499.554688 1018.78125 503.777344 966.289062 538.632812 936.621094 C 573.484375 906.960938 625.980469 911.179688 655.648438 946.03125 C 669.867188 962.730469 676.800781 984.269531 675.1875 1005.980469 C 676.894531 1007.03125 678.449219 1008.339844 679.78125 1009.910156 C 686.683594 1018.019531 685.703125 1030.230469 677.59375 1037.128906 C 673.96875 1040.21875 669.519531 1041.730469 665.09375 1041.730469 C 659.625 1041.730469 654.1875 1039.421875 650.375 1034.941406 C 647.03125 1031.011719 645.417969 1026.019531 645.828125 1020.878906 C 646.242188 1015.738281 648.636719 1011.058594 652.5625 1007.71875 C 655.359375 1005.339844 658.707031 1003.859375 662.25 1003.339844 C 663.140625 985.621094 657.28125 968.160156 645.675781 954.519531 C 620.6875 925.171875 576.480469 921.609375 547.121094 946.601562 C 517.765625 971.578125 514.210938 1015.789062 539.199219 1045.148438 C 550.648438 1058.601562 566.671875 1067.128906 584.023438 1069.230469 C 585.136719 1066.269531 586.988281 1063.539062 589.5625 1061.339844 C 597.671875 1054.441406 609.882812 1055.421875 616.78125 1063.53125 Z M 1368.910156 922.03125 L 1368.910156 938.550781 L 1420.96875 938.550781 L 1420.96875 1080.390625 L 1438.480469 1080.390625 L 1438.480469 938.550781 L 1490.539062 938.550781 L 1490.539062 922.03125 Z M 1121.011719 1008.679688 L 1205.640625 1008.679688 L 1205.640625 992.390625 L 1121.011719 992.390625 L 1121.011719 938.320312 L 1215.609375 938.320312 L 1215.609375 922.03125 L 1103.511719 922.03125 L 1103.511719 1080.390625 L 1216.71875 1080.390625 L 1216.71875 1064.101562 L 1121.011719 1064.101562 Z M 1060.308594 1048.941406 L 962.613281 922.03125 L 946.21875 922.03125 L 946.21875 1080.390625 L 963.28125 1080.390625 L 963.28125 950.539062 L 1063.410156 1080.390625 L 1077.371094 1080.390625 L 1077.371094 922.03125 L 1060.308594 922.03125 Z M 903.019531 922.03125 L 920.078125 922.03125 L 920.078125 1080.390625 L 906.121094 1080.390625 L 805.988281 950.539062 L 805.988281 1080.390625 L 788.929688 1080.390625 L 788.929688 922.03125 L 805.324219 922.03125 L 903.019531 1048.941406 L 903.019531 922.03125" fill="#ffffff"/></g></svg>